<svg width="216" height="205" viewBox="0 0 216 205" fill="none" xmlns="http://www.w3.org/2000/svg">
<path d="M197.574 71.7122C141.21 -38.0316 69.8007 13.6912 28.3161 61.6336C20.5967 70.5547 15.8784 81.8484 16.031 93.6447C16.9998 168.514 79.0076 195.553 122.163 195.553C226.359 184.765 228.674 125.432 197.574 71.7122Z" fill="#83BF13"/>
<path d="M185.169 68.5555C122.766 -45.4797 54.7954 12.497 13.7866 64.2776C6.47264 73.5127 2.07672 84.8755 2.47143 96.6494C5.12846 175.906 71.1705 202.735 116.54 201.506C225.344 187.231 219.264 124.042 185.169 68.5555Z" stroke="black" stroke-dasharray="4 4"/>
<path d="M133.226 61.5566C138.986 61.5566 143.945 62.9643 148.105 65.7803C152.265 68.5323 155.466 72.5006 157.706 77.6846C160.01 82.8685 161.161 89.1085 161.161 96.4043C161.161 99.6868 160.927 102.755 160.461 105.61C160.035 105.575 159.604 105.557 159.169 105.557C150.885 105.557 144.169 112.049 144.169 120.057C144.169 122.998 145.076 125.735 146.633 128.021C142.789 130.174 138.321 131.252 133.226 131.252C127.722 131.252 122.858 129.876 118.634 127.124C114.41 124.308 111.113 120.308 108.745 115.124C106.441 109.94 105.29 103.7 105.29 96.4043C105.29 89.1085 106.441 82.8685 108.745 77.6846C111.113 72.5006 114.41 68.5323 118.634 65.7803C122.858 62.9644 127.722 61.5566 133.226 61.5566ZM98.1094 130.005H82.4619V78.0684L65.8535 82.1963V68.084L98.1094 61.5566V130.005ZM133.226 75.4766C131.37 75.4766 129.674 75.9887 128.138 77.0127C126.666 77.9727 125.386 79.3804 124.298 81.2363C123.21 83.0283 122.378 85.2364 121.802 87.8604C121.226 90.4203 120.938 93.2683 120.938 96.4043C120.938 99.5401 121.226 102.42 121.802 105.044C122.378 107.604 123.21 109.812 124.298 111.668C125.386 113.46 126.666 114.869 128.138 115.893C129.674 116.853 131.37 117.332 133.226 117.332C135.082 117.332 136.746 116.853 138.218 115.893C139.754 114.869 141.065 113.46 142.153 111.668C143.241 109.812 144.073 107.604 144.649 105.044C145.225 102.42 145.514 99.5401 145.514 96.4043C145.514 93.2683 145.225 90.4203 144.649 87.8604C144.073 85.2364 143.241 83.0283 142.153 81.2363C141.065 79.3805 139.754 77.9727 138.218 77.0127C136.746 75.9887 135.082 75.4766 133.226 75.4766Z" fill="white"/>
<path d="M151.001 111.684H155.453V131.004H151.001V111.684ZM162.551 111.684H168.095L159.779 119.664L168.935 131.004H163.433L154.193 119.664L162.551 111.684Z" fill="white"/>
<path d="M45.9859 106.268V101.816H67.3639V106.268H45.9859ZM54.3019 93.3319H59.0479V114.794H54.3019V93.3319Z" fill="white"/>
</svg>
