<svg width="259" height="255" viewBox="0 0 259 255" fill="none" xmlns="http://www.w3.org/2000/svg">
<path d="M43.3173 88.9465C99.4065 -20.8144 170.47 30.9418 211.744 78.8905C219.413 87.8002 224.094 99.058 223.948 110.813C223.02 185.733 161.3 212.787 118.349 212.787C14.6768 201.999 12.3727 142.667 43.3173 88.9465Z" fill="#83BF13"/>
<path d="M202.616 64.2712C102.842 -28.9592 58.2475 71.1052 36.9693 135.09C35.2676 140.207 34.1934 145.531 34.2966 150.922C35.7314 225.895 120.751 234.708 164.959 218.787C237.753 176.607 252.342 106.259 202.616 64.2712Z" stroke="black" stroke-dasharray="4 4"/>
<path d="M79.2769 122.049V117.597H100.655V122.049H79.2769ZM87.5929 109.113H92.3389V130.575H87.5929V109.113Z" fill="white"/>
<path d="M148.356 127.465H152.808V146.785H148.356V127.465ZM159.906 127.465H165.45L157.134 135.445L166.29 146.785H160.788L151.548 135.445L159.906 127.465Z" fill="white"/>
<path d="M108.565 98.9752V84.8632L140.821 78.3352V146.783H125.173V94.8472L108.565 98.9752Z" fill="white"/>
</svg>
