<svg width="250" height="255" viewBox="0 0 250 255" fill="none" xmlns="http://www.w3.org/2000/svg">
<path d="M199.018 98.398C140.683 -16.223 56.0135 37.1751 40.6294 98.3976C25.2455 198.548 85.6853 221 129.437 221C215.447 210.476 228.306 149.451 199.018 98.398Z" fill="#83BF13"/>
<path d="M182.599 191.535C262.383 98.2481 187.866 52.1692 128.058 32.1572C116.886 28.4191 104.663 28.3517 93.8262 32.9709C25.2748 62.1896 23.7789 129.394 40.0643 169.055C89.3302 260.754 144.856 240.442 182.599 191.535Z" stroke="black" stroke-dasharray="4 4"/>
<path d="M63.0015 129.264V124.812H84.3795V129.264H63.0015ZM71.3175 116.328H76.0635V137.79H71.3175V116.328Z" fill="white"/>
<path d="M156.516 134.68H160.968V154H156.516V134.68ZM168.066 134.68H173.61L165.294 142.66L174.45 154H168.948L159.708 142.66L168.066 134.68Z" fill="white"/>
<path d="M92.1036 154L122.056 122.992C123.848 121.008 125.384 119.216 126.664 117.616C128.008 116.016 129 114.448 129.64 112.912C130.344 111.312 130.696 109.616 130.696 107.824C130.696 106.8 130.504 105.776 130.12 104.752C129.736 103.728 129.16 102.832 128.392 102.064C127.624 101.232 126.664 100.592 125.512 100.144C124.36 99.632 123.016 99.376 121.48 99.376C119.432 99.376 117.608 99.888 116.008 100.912C114.472 101.936 113.288 103.376 112.456 105.232C111.688 107.088 111.304 109.232 111.304 111.664H95.3676C95.3676 106.864 96.3596 102.48 98.3436 98.512C100.328 94.544 103.304 91.376 107.272 89.008C111.304 86.64 116.2 85.456 121.96 85.456C126.12 85.456 129.8 86.096 133 87.376C136.2 88.592 138.856 90.256 140.968 92.368C143.144 94.416 144.776 96.688 145.864 99.184C146.952 101.68 147.496 104.208 147.496 106.768C147.496 110.416 146.6 113.776 144.808 116.848C143.016 119.856 140.68 122.608 137.8 125.104L122.152 139.12H149.032V154H92.1036Z" fill="white"/>
</svg>
