<svg width="24" height="27" viewBox="0 0 24 27" fill="none" xmlns="http://www.w3.org/2000/svg">
<path d="M15.0905 27H4.45476C1.99833 27 0 25.1075 0 22.7812V8.49023C0 6.16395 1.99833 4.27148 4.45476 4.27148H15.0905C17.5469 4.27148 19.5452 6.16395 19.5452 8.49023V22.7812C19.5452 25.1075 17.5469 27 15.0905 27ZM4.45476 6.38086C3.22665 6.38086 2.22738 7.32719 2.22738 8.49023V22.7812C2.22738 23.9443 3.22665 24.8906 4.45476 24.8906H15.0905C16.3186 24.8906 17.3179 23.9443 17.3179 22.7812V8.49023C17.3179 7.32719 16.3186 6.38086 15.0905 6.38086H4.45476ZM24 20.1445V4.21875C24 1.89246 22.0017 0 19.5452 0H7.18329C6.56816 0 6.06961 0.472137 6.06961 1.05469C6.06961 1.63724 6.56816 2.10938 7.18329 2.10938H19.5452C20.7733 2.10938 21.7726 3.05571 21.7726 4.21875V20.1445C21.7726 20.7271 22.2712 21.1992 22.8863 21.1992C23.5015 21.1992 24 20.7271 24 20.1445Z" fill="#333333"/>
</svg>
