<svg width="38" height="36" viewBox="0 0 38 36" fill="none" xmlns="http://www.w3.org/2000/svg">
<path d="M25.2988 1.82617C27.1646 0.736779 29.1991 0.784154 31.084 1.61816C32.9889 2.46108 34.7084 4.10239 35.7998 6.10938C36.8889 8.1124 37.3136 10.405 36.752 12.5498C35.5295 17.2169 32.6155 21.7189 29.1709 25.5977C25.9372 29.239 22.2837 32.276 19.2607 34.3271C16.3334 32.2239 12.1792 28.8607 8.56348 25.0518C4.66858 20.9487 1.57759 16.5116 1.0752 12.6738C0.788466 10.4833 1.3391 8.14301 2.46191 6.11621C3.58648 4.08641 5.2413 2.44977 7.06445 1.61328C8.85838 0.79022 10.8164 0.732748 12.7158 1.8291C14.6542 2.94799 16.6617 5.3442 18.3086 9.70215L19.3447 12.4453L20.2002 9.64062C21.5239 5.30286 23.4057 2.93159 25.2988 1.82617Z" fill="#E99700" stroke="#E99700" stroke-width="2"/>
</svg>
