<svg width="273" height="100" viewBox="0 0 273 100" fill="none" xmlns="http://www.w3.org/2000/svg">
<rect x="8.9668" width="266.563" height="61" rx="30.5" transform="rotate(8.45182 8.9668 0)" fill="#E99700"/>
<path d="M39.6147 43.2284L44.1487 26.9176L45.8342 27.168L41.3002 43.4788L39.6147 43.2284ZM37.4957 38.5462L37.7532 36.8132L52.4004 38.9892L52.143 40.7222L37.4957 38.5462ZM45.787 44.1453L50.2972 27.831L51.9827 28.0814L47.4725 44.3957L45.787 44.1453ZM39.197 32.3206L39.4545 30.5876L54.1017 32.7636L53.8443 34.4966L39.197 32.3206ZM55.4994 45.5882L57.9681 28.9706L65.1136 30.0321C66.9178 30.3001 68.2802 30.8746 69.2008 31.7554C70.1213 32.6362 70.4782 33.773 70.2713 35.1657C70.0691 36.5268 69.4233 37.4984 68.3339 38.0807C67.2469 38.6471 65.9041 38.8116 64.3057 38.5741L64.8388 37.9254C66.6904 38.2005 68.0516 38.7828 68.9224 39.6724C69.8113 40.5486 70.1511 41.6909 69.9419 43.0995C69.7303 44.5238 69.0422 45.562 67.8778 46.214C66.7315 46.8524 65.1376 47.02 63.096 46.7167L55.4994 45.5882ZM58.1282 44.0619L63.3271 44.8343C64.5932 45.0224 65.5769 44.934 66.2781 44.569C66.9975 44.1906 67.429 43.5187 67.5724 42.5533C67.7158 41.5879 67.496 40.8355 66.9129 40.2959C66.3457 39.7588 65.4291 39.3961 64.163 39.208L58.964 38.4357L58.1282 44.0619ZM59.232 36.6315L63.8612 37.3192C65.0166 37.4908 65.929 37.3918 66.5986 37.0222C67.284 36.6549 67.6925 36.0282 67.8242 35.1419C67.9582 34.2398 67.7507 33.5134 67.2017 32.9628C66.6684 32.4144 65.8242 32.0545 64.6689 31.8828L60.0397 31.1951L59.232 36.6315ZM80.5699 49.3127L80.9649 46.6538L80.9203 46.1377L81.5939 41.6034C81.7373 40.638 81.5629 39.8519 81.0708 39.245C80.5968 38.6246 79.7979 38.2309 78.6743 38.064C77.9304 37.9535 77.1836 37.9719 76.4338 38.1194C75.6864 38.251 75.0368 38.4861 74.485 38.8247L73.7894 36.9743C74.5158 36.5485 75.3501 36.268 76.2922 36.133C77.2524 35.9845 78.2311 35.9843 79.2281 36.1324C80.9532 36.3887 82.2203 37.0056 83.0294 37.9831C83.8386 38.9606 84.115 40.3119 83.8587 42.037L82.7302 49.6336L80.5699 49.3127ZM76.4181 48.8414C75.4843 48.7027 74.6849 48.4222 74.0197 47.9999C73.3704 47.5799 72.8969 47.0647 72.5994 46.4544C72.3042 45.8282 72.2095 45.159 72.3153 44.4469C72.4164 43.7663 72.6664 43.1726 73.0652 42.6657C73.4798 42.1612 74.0758 41.7968 74.8532 41.5726C75.6464 41.3507 76.6682 41.3327 77.9185 41.5184L81.9067 42.1109L81.6633 43.7489L77.7701 43.1706C76.6306 43.0013 75.8348 43.0772 75.3827 43.3982C74.9306 43.7193 74.6646 44.1488 74.5847 44.6869C74.493 45.3042 74.6642 45.8391 75.0984 46.2918C75.5349 46.7287 76.1884 47.0118 77.0589 47.1412C77.9135 47.2681 78.6856 47.1887 79.375 46.9029C80.0803 46.6195 80.6295 46.1349 81.0225 45.4492L81.2408 47.083C80.8296 47.7822 80.2113 48.2969 79.3858 48.6272C78.5626 48.9417 77.5734 49.0131 76.4181 48.8414ZM86.834 50.2432L88.7031 37.6613L90.9821 37.9999L89.321 49.1812L88.8632 48.5066L95.4865 49.4905L94.8761 50.0064L96.5372 38.8251L98.8161 39.1637L97.1551 50.345L96.6735 49.6669L103.321 50.6543L102.686 51.1667L104.347 39.9854L106.626 40.324L104.757 52.9059L86.834 50.2432ZM109.182 53.5633L111.052 40.9814L113.331 41.32L111.969 50.4834L121.046 42.4661L123.111 42.773L121.242 55.3549L118.963 55.0163L120.324 45.8529L111.272 53.8737L109.182 53.5633ZM132.041 56.9591L133.91 44.3772L136.26 44.7264L140.29 54.8363L139.341 54.6953L146.278 46.2146L148.415 46.532L146.546 59.114L144.48 58.8071L145.969 48.7891L146.317 49.0592L139.992 56.6845L138.995 56.5364L135.16 47.2319L135.625 47.204L134.13 57.2695L132.041 56.9591ZM158.697 60.9191L159.092 58.2603L159.047 57.7441L159.721 53.2099C159.864 52.2445 159.69 51.4583 159.198 50.8514C158.724 50.231 157.925 49.8374 156.801 49.6704C156.057 49.5599 155.311 49.5784 154.561 49.7258C153.813 49.8574 153.164 50.0925 152.612 50.4311L151.916 48.5808C152.643 48.1549 153.477 47.8745 154.419 47.7394C155.379 47.5909 156.358 47.5907 157.355 47.7389C159.08 47.9951 160.347 48.612 161.156 49.5895C161.966 50.5671 162.242 51.9183 161.986 53.6434L160.857 61.24L158.697 60.9191ZM154.545 60.4479C153.611 60.3092 152.812 60.0287 152.147 59.6063C151.497 59.1864 151.024 58.6712 150.726 58.0609C150.431 57.4347 150.336 56.7655 150.442 56.0533C150.543 55.3728 150.793 54.7791 151.192 54.2722C151.607 53.7676 152.203 53.4032 152.98 53.179C153.773 52.9572 154.795 52.9391 156.045 53.1249L160.034 53.7174L159.79 55.3554L155.897 54.777C154.758 54.6077 153.962 54.6836 153.51 55.0047C153.058 55.3257 152.792 55.7553 152.712 56.2934C152.62 56.9106 152.791 57.4456 153.225 57.8983C153.662 58.3352 154.315 58.6183 155.186 58.7476C156.04 58.8746 156.813 58.7952 157.502 58.5094C158.207 58.2259 158.756 57.7414 159.149 57.0557L159.368 58.6895C158.957 59.3887 158.338 59.9034 157.513 60.2337C156.69 60.5481 155.7 60.6195 154.545 60.4479ZM164.244 61.9373C164.039 61.9068 163.82 61.8501 163.59 61.7674C163.373 61.7028 163.135 61.6189 162.875 61.5156L163.303 59.6139C163.412 59.6462 163.512 59.6773 163.605 59.7072C163.698 59.7371 163.784 59.758 163.863 59.7697C164.369 59.845 164.791 59.7297 165.127 59.4238C165.48 59.1203 165.769 58.6942 165.996 58.1457C166.226 57.5812 166.426 56.9397 166.598 56.2211C166.769 55.5025 166.925 54.7816 167.065 54.0583L167.97 49.4371L177.632 50.8724L175.762 63.4544L173.483 63.1158L175.155 51.8633L175.602 52.6091L169.145 51.6498L169.77 51.039L169.085 54.504C168.873 55.6048 168.632 56.6285 168.362 57.5751C168.092 58.5217 167.768 59.339 167.391 60.027C167.03 60.7174 166.589 61.2343 166.069 61.5776C165.565 61.9232 164.956 62.0431 164.244 61.9373ZM185.459 64.9192L180.169 64.109L182.038 51.5271L184.317 51.8656L183.686 56.115L187.077 56.6431C188.673 56.8964 189.83 57.4402 190.547 58.2747C191.28 59.1115 191.55 60.1787 191.357 61.4765C191.155 62.8376 190.54 63.8218 189.511 64.4293C188.501 65.0233 187.15 65.1866 185.459 64.9192ZM185.551 63.1615C186.561 63.3278 187.367 63.2373 187.969 62.8899C188.57 62.5425 188.934 61.9495 189.058 61.1107C189.18 60.2877 189.001 59.6463 188.519 59.1866C188.053 58.7291 187.307 58.4161 186.281 58.2475L183.439 57.7768L182.705 62.7146L185.551 63.1615ZM192.609 65.957L194.478 53.3751L196.757 53.7136L194.888 66.2956L192.609 65.957ZM199.318 66.9538L201.187 54.3719L203.466 54.7104L201.805 65.8917L201.347 65.2171L207.971 66.2011L207.36 66.717L209.021 55.5357L211.3 55.8742L209.639 67.0555L209.158 66.3774L215.805 67.3649L215.171 67.8773L216.832 56.696L219.111 57.0345L217.242 69.6165L199.318 66.9538ZM221.667 70.2739L223.536 57.6919L225.815 58.0305L224.454 67.1939L233.53 59.1767L235.596 59.4835L233.726 72.0654L231.447 71.7269L232.809 62.5634L223.756 70.5842L221.667 70.2739Z" fill="white"/>
</svg>
