<svg width="265" height="261" viewBox="0 0 265 261" fill="none" xmlns="http://www.w3.org/2000/svg">
<path d="M217.068 104.398C152.399 -10.223 58.5375 43.1751 41.4831 104.398C24.4289 204.548 91.4308 227 139.932 227C235.281 216.476 249.536 155.451 217.068 104.398Z" fill="#83BF13"/>
<path d="M192.931 193.767C282.821 95.6808 201.33 51.4677 137.186 33.46C126.525 30.4671 115.147 30.736 104.884 34.8937C27.6164 66.1964 23.5947 135.421 40.064 175.529C90.2298 266.859 150.706 244.514 192.931 193.767Z" stroke="black" stroke-dasharray="4 4"/>
<path fill-rule="evenodd" clip-rule="evenodd" d="M106.739 149.22C98.8628 149.22 92.4707 156.076 92.4707 164.524C92.4707 172.973 98.8628 179.829 106.739 179.829C114.615 179.829 121.007 172.973 121.007 164.524C121.007 156.076 114.615 149.22 106.739 149.22ZM106.739 156.872C110.677 156.872 113.873 160.3 113.873 164.524C113.873 168.748 110.677 172.177 106.739 172.177C102.801 172.177 99.6047 168.748 99.6047 164.524C99.6047 160.3 102.801 156.872 106.739 156.872Z" fill="white"/>
<path fill-rule="evenodd" clip-rule="evenodd" d="M163.811 149.22C155.935 149.22 149.543 156.076 149.543 164.524C149.543 172.973 155.935 179.829 163.811 179.829C171.687 179.829 178.079 172.973 178.079 164.524C178.079 156.076 171.687 149.22 163.811 149.22ZM163.811 156.872C167.749 156.872 170.945 160.3 170.945 164.524C170.945 168.748 167.749 172.177 163.811 172.177C159.873 172.177 156.677 168.748 156.677 164.524C156.677 160.3 159.873 156.872 163.811 156.872Z" fill="white"/>
<path fill-rule="evenodd" clip-rule="evenodd" d="M145.976 160.697V99.4785C145.976 93.1424 141.182 88 135.275 88H85.3365C83.3676 88 81.7695 89.7141 81.7695 91.8262C81.7695 93.9382 83.3676 95.6523 85.3365 95.6523H135.275C137.244 95.6523 138.842 97.3664 138.842 99.4785V160.697C138.842 162.809 140.44 164.523 142.409 164.523C144.378 164.523 145.976 162.809 145.976 160.697Z" fill="white"/>
<path fill-rule="evenodd" clip-rule="evenodd" d="M85.3365 164.523H96.0376C98.0066 164.523 99.6046 162.809 99.6046 160.697C99.6046 158.585 98.0066 156.871 96.0376 156.871H85.3365C83.3676 156.871 81.7695 158.585 81.7695 160.697C81.7695 162.809 83.3676 164.523 85.3365 164.523Z" fill="white"/>
<path fill-rule="evenodd" clip-rule="evenodd" d="M117.44 164.523H153.11C155.079 164.523 156.677 162.809 156.677 160.697C156.677 158.585 155.079 156.871 153.11 156.871H117.44C115.471 156.871 113.873 158.585 113.873 160.697C113.873 162.809 115.471 164.523 117.44 164.523Z" fill="white"/>
<path fill-rule="evenodd" clip-rule="evenodd" d="M174.512 164.524H178.079L178.354 164.52C184.132 164.364 188.78 159.282 188.78 153.046V130.651C188.78 126.825 187.364 123.16 184.842 120.455L176.36 111.356C173.838 108.651 170.421 107.132 166.854 107.132H142.409C140.44 107.132 138.842 108.846 138.842 110.958C138.842 113.07 140.44 114.784 142.409 114.784H166.854C168.526 114.784 170.132 115.496 171.316 116.766L179.798 125.865C180.982 127.135 181.646 128.857 181.646 130.651V153.046C181.646 155.158 180.048 156.872 178.079 156.872H178.04H174.512C172.543 156.872 170.945 158.586 170.945 160.698C170.945 162.81 172.543 164.524 174.512 164.524Z" fill="white"/>
<path fill-rule="evenodd" clip-rule="evenodd" d="M156.678 110.958V130.008C156.678 134.278 159.906 137.741 163.887 137.741H185.214C187.183 137.741 188.781 136.027 188.781 133.915C188.781 131.803 187.183 130.089 185.214 130.089H163.887C163.844 130.089 163.812 130.054 163.812 130.008V110.958C163.812 108.846 162.214 107.132 160.245 107.132C158.276 107.132 156.678 108.846 156.678 110.958Z" fill="white"/>
<path fill-rule="evenodd" clip-rule="evenodd" d="M88.1901 110.958H113.873C115.842 110.958 117.44 109.244 117.44 107.132C117.44 105.02 115.842 103.306 113.873 103.306H88.1901C86.2211 103.306 84.623 105.02 84.623 107.132C84.623 109.244 86.2211 110.958 88.1901 110.958Z" fill="white"/>
<path fill-rule="evenodd" clip-rule="evenodd" d="M99.6041 126.263H128.14C130.109 126.263 131.707 124.549 131.707 122.437C131.707 120.324 130.109 118.61 128.14 118.61H99.6041C97.6351 118.61 96.0371 120.324 96.0371 122.437C96.0371 124.549 97.6351 126.263 99.6041 126.263Z" fill="white"/>
<path fill-rule="evenodd" clip-rule="evenodd" d="M85.3365 141.566H113.873C115.842 141.566 117.44 139.852 117.44 137.74C117.44 135.628 115.842 133.914 113.873 133.914H85.3365C83.3676 133.914 81.7695 135.628 81.7695 137.74C81.7695 139.852 83.3676 141.566 85.3365 141.566Z" fill="white"/>
</svg>
