<svg width="216" height="205" viewBox="0 0 216 205" fill="none" xmlns="http://www.w3.org/2000/svg">
<path d="M197.574 71.7122C141.21 -38.0316 69.8007 13.6912 28.3161 61.6336C20.5967 70.5547 15.8784 81.8484 16.031 93.6447C16.9998 168.514 79.0076 195.553 122.163 195.553C226.359 184.765 228.674 125.432 197.574 71.7122Z" fill="#83BF13"/>
<path d="M185.169 68.5555C122.766 -45.4797 54.7954 12.497 13.7866 64.2776C6.47264 73.5127 2.07672 84.8755 2.47143 96.6494C5.12846 175.906 71.1705 202.735 116.54 201.506C225.344 187.231 219.264 124.042 185.169 68.5555Z" stroke="black" stroke-dasharray="4 4"/>
<path fill-rule="evenodd" clip-rule="evenodd" d="M68.6129 90.2446C69.5576 89.511 70.7521 89.3854 71.7924 89.9105L85.2587 96.7033C86.4965 97.328 87.299 98.7607 87.299 100.346V117.329C87.299 118.661 86.7305 119.904 85.7857 120.637C84.841 121.371 83.6465 121.496 82.6062 120.971L69.14 114.178C67.9021 113.554 67.0996 112.121 67.0996 110.536V93.5527C67.0996 92.221 67.6681 90.9777 68.6129 90.2446ZM73.8327 99.5622V107.923L80.5659 111.32V102.959L73.8327 99.5622Z" fill="white"/>
<path d="M152.514 125.763C154.24 124.95 155.08 122.644 154.389 120.612C153.699 118.58 151.739 117.592 150.013 118.405L136.547 124.745C134.82 125.558 133.981 127.864 134.671 129.896C135.362 131.928 137.321 132.916 139.047 132.104L152.514 125.763Z" fill="white"/>
<path d="M154.389 108.725C155.08 110.757 154.24 113.063 152.514 113.876L139.047 120.216C137.321 121.029 135.362 120.04 134.671 118.008C133.981 115.976 134.821 113.67 136.547 112.857L150.013 106.517C151.739 105.704 153.699 106.692 154.389 108.725Z" fill="white"/>
<path fill-rule="evenodd" clip-rule="evenodd" d="M109.615 46.2835C110.417 45.9055 111.313 45.9055 112.116 46.2835L162.614 70.0598C163.892 70.6614 164.73 72.1187 164.73 73.739V133.18C164.73 134.8 163.892 136.257 162.614 136.859L112.115 160.636C111.313 161.013 110.417 161.013 109.615 160.636L59.1161 136.859C57.8381 136.257 57 134.8 57 133.18V73.739C57 72.1187 57.8381 70.6614 59.1163 70.0596L109.615 46.2835ZM63.7331 79.5922L107.499 100.198V151.104L63.7331 130.497V79.5922ZM114.232 151.103L157.997 130.497V79.5922L114.232 100.198V151.103ZM136.956 80.963L152.299 73.739L110.865 54.2307L95.5224 61.4545L136.956 80.963ZM86.4575 65.7226L69.4313 73.739L110.865 93.2475L127.891 85.2309L86.4575 65.7226Z" fill="white"/>
</svg>
