<svg width="33" height="31" viewBox="0 0 33 31" fill="none" xmlns="http://www.w3.org/2000/svg">
<path d="M26.7634 11.2157C26.7132 12.478 26.4496 13.7247 25.9822 14.9091C24.3167 19.5106 20.2665 25.4006 16.4998 29.4258C12.7332 25.4006 8.68297 19.5106 7.0175 14.9091C6.55014 13.7247 6.28645 12.478 6.23633 11.2157C6.23633 8.65862 7.31766 6.20627 9.24244 4.39814C11.1672 2.59002 13.7778 1.57422 16.4998 1.57422C19.2219 1.57422 21.8325 2.59002 23.7572 4.39814C25.682 6.20627 26.7634 8.65862 26.7634 11.2157Z" fill="#31777B"/>
<path d="M16.5006 16.0355C19.3347 16.0355 21.6321 13.8773 21.6321 11.215C21.6321 8.55274 19.3347 6.39453 16.5006 6.39453C13.6666 6.39453 11.3691 8.55274 11.3691 11.215C11.3691 13.8773 13.6666 16.0355 16.5006 16.0355Z" fill="#F2F2F2"/>
</svg>
