<svg width="30" height="26" viewBox="0 0 30 26" fill="none" xmlns="http://www.w3.org/2000/svg">
<g clip-path="url(#clip0_2530_667)">
<path fill-rule="evenodd" clip-rule="evenodd" d="M14.5516 10.6543H14.62C14.6384 10.6525 17.2392 10.4035 19.3895 13.8164C21.8536 17.7281 24.7727 17.8346 24.909 21.1416C24.8412 24.7433 22.6259 26.0465 20.2752 25.9258C17.9245 25.8055 16.2895 24.8613 14.62 24.8613L14.5516 24.8935C12.8821 24.8935 11.247 25.8719 8.89632 25.9922C6.54544 26.1124 4.33027 24.8743 4.26253 21.2724C4.399 17.9659 7.30615 17.7226 9.78206 13.8164C11.9571 10.3846 14.5393 10.653 14.5516 10.6543ZM13.6375 16.416C13.0133 15.9788 12.3574 15.9001 11.7742 16.1142C11.2143 16.3199 10.7839 16.7717 10.5164 17.2803C10.2479 17.7911 10.1178 18.4065 10.2039 18.998C10.2801 19.5202 10.5409 20.0069 10.869 20.4385C11.1992 20.8728 11.6202 21.2815 12.0604 21.6513C12.9396 22.39 13.9509 23.0189 14.5926 23.4228L14.8494 23.5849L15.1121 23.4306C15.8382 23.0037 16.7031 22.3681 17.4617 21.625C18.2138 20.8882 18.9009 20.0075 19.2147 19.0859L19.2176 19.0762L19.2205 19.0654C19.3985 18.4554 19.307 17.8182 19.0526 17.2939C18.7994 16.7724 18.3632 16.3197 17.8035 16.1142C17.2223 15.9011 16.563 15.9768 15.951 16.4209C15.544 16.7163 15.1684 17.1682 14.8309 17.7881C14.4561 17.1629 14.0571 16.7099 13.6375 16.416ZM2.32601 7.23435C4.09796 6.81575 6.0842 8.22184 6.76155 10.375C7.43877 12.5283 6.55097 14.6136 4.77913 15.0322C3.00722 15.4508 1.02197 14.0446 0.344561 11.8916C-0.332712 9.73839 0.554158 7.6531 2.32601 7.23435ZM23.2381 10.376C23.9153 8.22262 25.9008 6.8157 27.6727 7.23435C29.4448 7.65297 30.3324 9.73835 29.6551 11.8916C28.9778 14.0449 26.9916 15.4508 25.2196 15.0322C23.448 14.6134 22.5611 12.529 23.2381 10.376ZM15.9696 3.86717C16.7472 1.39441 19.0275 -0.220973 21.0623 0.259744C23.0968 0.740644 24.1153 3.13481 23.3377 5.6074C22.56 8.08016 20.2798 9.69554 18.245 9.21482C16.2105 8.73392 15.1921 6.3396 15.9696 3.86717ZM9.55159 0.00681468C11.6338 -0.130022 13.501 1.81037 13.7225 4.3408C13.9439 6.87135 12.4356 9.03404 10.3533 9.17088C8.2711 9.30765 6.40384 7.36636 6.18245 4.83592C5.96128 2.30566 7.46955 0.14372 9.55159 0.00681468Z" fill="#83BF13"/>
</g>
<defs>
<clipPath id="clip0_2530_667">
<rect width="30" height="26" fill="white"/>
</clipPath>
</defs>
</svg>
