<svg width="409" height="409" viewBox="0 0 409 409" fill="none" xmlns="http://www.w3.org/2000/svg">
<circle cx="204.5" cy="204.5" r="204.5" transform="matrix(1 0 0 -1 0 409)" fill="#83BF13"/>
<path fill-rule="evenodd" clip-rule="evenodd" d="M190.429 87.1211C140.143 87.1211 99.1015 128.084 99.1016 178.37C99.1017 228.656 140.144 269.698 190.429 269.698C211.928 269.698 231.695 262.152 247.314 249.634L304.891 307.29C305.836 308.235 306.957 308.984 308.19 309.495C309.424 310.006 310.746 310.269 312.081 310.269C313.416 310.269 314.739 310.006 315.972 309.495C317.206 308.984 318.327 308.235 319.271 307.29C320.215 306.346 320.964 305.225 321.475 303.992C321.986 302.758 322.249 301.436 322.249 300.101C322.249 298.765 321.986 297.443 321.475 296.21C320.964 294.976 320.215 293.855 319.271 292.911L261.654 235.294C274.162 219.657 281.698 199.873 281.698 178.37C281.698 128.084 240.716 87.1211 190.429 87.1211ZM190.429 107.403C229.754 107.403 261.396 139.045 261.396 178.37C261.396 217.695 229.754 249.416 190.429 249.416C151.105 249.416 119.384 217.695 119.383 178.37C119.383 139.045 151.104 107.403 190.429 107.403ZM190.429 127.705C187.778 127.762 185.254 128.855 183.399 130.751C181.544 132.647 180.505 135.193 180.505 137.846C180.505 140.498 181.544 143.045 183.399 144.94C185.254 146.836 187.778 147.929 190.429 147.987C207.352 147.987 220.833 161.448 220.833 178.37C220.803 179.72 221.043 181.063 221.539 182.32C222.035 183.577 222.777 184.721 223.722 185.687C224.666 186.653 225.795 187.421 227.04 187.944C228.285 188.468 229.622 188.738 230.973 188.738C232.324 188.738 233.662 188.468 234.907 187.944C236.152 187.421 237.28 186.653 238.225 185.687C239.17 184.721 239.912 183.577 240.408 182.32C240.904 181.063 241.144 179.72 241.114 178.37C241.115 150.487 218.313 127.705 190.429 127.705Z" fill="white"/>
</svg>
