<svg width="259" height="255" viewBox="0 0 259 255" fill="none" xmlns="http://www.w3.org/2000/svg">
<path d="M43.3173 88.9446C99.4065 -20.8163 170.47 30.9399 211.744 78.8885C219.413 87.7983 224.094 99.0561 223.948 110.811C223.02 185.731 161.3 212.785 118.349 212.785C14.6768 201.997 12.3727 142.665 43.3173 88.9446Z" fill="#83BF13"/>
<path d="M202.616 64.2712C102.842 -28.9592 58.2475 71.1052 36.9693 135.09C35.2676 140.207 34.1934 145.531 34.2966 150.922C35.7314 225.895 120.751 234.708 164.959 218.787C237.753 176.607 252.342 106.259 202.616 64.2712Z" stroke="black" stroke-dasharray="4 4"/>
<path d="M113.203 79.7607C113.892 79.7284 121.097 79.5298 126.415 84.5645L126.78 84.9219C127.869 86.0246 128.773 87.2768 129.5 88.6621C130.307 87.1248 131.331 85.7515 132.585 84.5645C137.868 79.5625 145.017 79.7285 145.822 79.7617V79.7607H145.825C151.826 79.7607 156.743 84.6883 156.743 90.7363C156.743 93.1278 155.971 95.3375 154.67 97.1377H169.963C171.227 97.1379 172.25 98.1622 172.25 99.4248V117.052C172.25 118.315 171.227 119.34 169.963 119.34H168.187V162.963C168.186 164.226 167.163 165.25 165.898 165.25H93.1016C91.8375 165.25 90.8137 164.226 90.8135 162.963V119.34H89.0371C87.7731 119.34 86.75 118.315 86.75 117.052V99.4248C86.7502 98.1622 87.7732 97.1379 89.0371 97.1377H104.33C103.029 95.3375 102.257 93.1278 102.257 90.7363C102.257 84.6932 107.163 79.7776 113.203 79.7607ZM141.534 160.675H163.611V119.34H141.534V160.675ZM122.041 160.675H136.959V119.34H122.041V160.675ZM95.3887 160.675H117.466V119.34H95.3887V160.675ZM141.534 114.765H167.675V101.713H141.534V114.765ZM122.041 114.765H136.959V101.713H122.041V114.765ZM91.3252 114.765H117.466V101.713H91.3252V114.765ZM113.364 84.3311L113.327 84.333H113.289C109.699 84.3345 106.832 87.2135 106.832 90.7363C106.832 94.2646 109.705 97.1377 113.234 97.1377H127.132C126.83 93.0689 125.503 90.0087 123.282 87.8994C121.302 86.0182 118.85 85.1136 116.829 84.6875C114.869 84.2743 113.403 84.3302 113.364 84.3311ZM145.705 84.333C145.705 84.333 144.197 84.2654 142.179 84.6895C140.149 85.1159 137.696 86.0205 135.718 87.8994C133.497 90.0087 132.17 93.0689 131.868 97.1377H145.766C149.295 97.1377 152.168 94.2646 152.168 90.7363C152.168 87.2075 149.295 84.335 145.766 84.335H145.735L145.705 84.333Z" fill="white" stroke="white" stroke-width="2.5"/>
</svg>
