<svg width="29" height="29" viewBox="0 0 29 29" fill="none" xmlns="http://www.w3.org/2000/svg">
<path d="M23.6086 4.93945H5.39297C3.26328 4.93945 1.49609 6.70664 1.49609 8.83633V20.1191C1.49609 22.2488 3.26328 24.016 5.39297 24.016H23.6086C25.7383 24.016 27.5055 22.2488 27.5055 20.1191V8.88164C27.5055 6.70664 25.7836 4.93945 23.6086 4.93945ZM23.5633 6.75195L16.0414 12.2801C15.1352 12.9598 13.8664 12.9598 12.9602 12.2801L5.43828 6.75195H23.5633ZM25.693 20.1191C25.693 21.252 24.7414 22.2035 23.6086 22.2035H5.39297C4.26016 22.2035 3.30859 21.252 3.30859 20.1191V8.88164C3.30859 8.47383 3.44453 8.06602 3.67109 7.74883L11.918 13.7754C12.6883 14.3645 13.5945 14.6363 14.5461 14.6363C15.4523 14.6363 16.3586 14.3645 17.1742 13.7754L25.3758 7.70352C25.6023 8.0207 25.7383 8.42852 25.7383 8.83633V20.1191H25.693Z" fill="#31777B"/>
<path d="M15.0903 16.0407C15.045 15.9954 14.9997 15.9501 14.9544 15.9501C14.5919 15.7235 14.0934 15.7235 13.7763 16.0407C13.0513 16.7657 12.2809 17.536 11.5559 18.261C11.2388 18.5782 11.1934 19.2126 11.5559 19.5297C11.9184 19.8469 12.4622 19.8922 12.8247 19.5297L13.5044 18.8501V19.8922V20.3454C13.5044 20.7985 13.9122 21.2516 14.4106 21.2516C14.9091 21.2516 15.3169 20.8438 15.3169 20.3454C15.3169 19.8469 15.3169 19.3485 15.3169 18.8501L16.0872 19.6204C16.4044 19.9376 17.0388 19.9829 17.3559 19.6204C17.6731 19.2579 17.7184 18.7141 17.3559 18.3516C16.6309 17.5813 15.8606 16.811 15.0903 16.0407Z" fill="#31777B"/>
</svg>
