<svg width="182" height="659" viewBox="0 0 182 659" fill="none" xmlns="http://www.w3.org/2000/svg">
<path d="M62.4005 163.36C61.6538 163.36 60.9631 163.239 60.3285 162.996C59.7031 162.744 59.1571 162.394 58.6905 161.946C58.2331 161.489 57.8738 160.957 57.6125 160.35C57.3511 159.743 57.2205 159.076 57.2205 158.348C57.2205 157.62 57.3511 156.953 57.6125 156.346C57.8738 155.739 58.2378 155.212 58.7045 154.764C59.1711 154.307 59.7171 153.957 60.3425 153.714C60.9771 153.462 61.6678 153.336 62.4145 153.336C63.1705 153.336 63.8658 153.467 64.5005 153.728C65.1445 153.98 65.6905 154.358 66.1385 154.862L65.2285 155.744C64.8551 155.352 64.4351 155.063 63.9685 154.876C63.5018 154.68 63.0025 154.582 62.4705 154.582C61.9198 154.582 61.4065 154.675 60.9305 154.862C60.4638 155.049 60.0578 155.31 59.7125 155.646C59.3671 155.982 59.0965 156.383 58.9005 156.85C58.7138 157.307 58.6205 157.807 58.6205 158.348C58.6205 158.889 58.7138 159.393 58.9005 159.86C59.0965 160.317 59.3671 160.714 59.7125 161.05C60.0578 161.386 60.4638 161.647 60.9305 161.834C61.4065 162.021 61.9198 162.114 62.4705 162.114C63.0025 162.114 63.5018 162.021 63.9685 161.834C64.4351 161.638 64.8551 161.339 65.2285 160.938L66.1385 161.82C65.6905 162.324 65.1445 162.707 64.5005 162.968C63.8658 163.229 63.1658 163.36 62.4005 163.36ZM67.9492 162.31L66.6192 162.072C66.9085 162.081 67.1418 161.988 67.3192 161.792C67.4965 161.587 67.6318 161.307 67.7252 160.952C67.8278 160.597 67.9025 160.196 67.9492 159.748C67.9958 159.291 68.0332 158.819 68.0612 158.334L68.1732 155.828H73.9272V162.618H72.5832V157.004H69.3632L69.2932 158.432C69.2745 158.899 69.2418 159.351 69.1952 159.79C69.1578 160.219 69.0925 160.616 68.9992 160.98C68.9152 161.344 68.7892 161.643 68.6212 161.876C68.4532 162.109 68.2292 162.254 67.9492 162.31ZM66.3252 164.97V162.072H75.0612V164.97H73.8012V163.248H67.5992V164.97H66.3252ZM80.116 163.332C79.3227 163.332 78.6227 163.169 78.016 162.842C77.4187 162.515 76.952 162.067 76.616 161.498C76.2894 160.929 76.126 160.275 76.126 159.538C76.126 158.801 76.2847 158.147 76.602 157.578C76.9287 157.009 77.372 156.565 77.932 156.248C78.5014 155.921 79.1407 155.758 79.85 155.758C80.5687 155.758 81.2034 155.917 81.754 156.234C82.3047 156.551 82.734 156.999 83.042 157.578C83.3594 158.147 83.518 158.815 83.518 159.58C83.518 159.636 83.5134 159.701 83.504 159.776C83.504 159.851 83.4994 159.921 83.49 159.986H77.176V159.02H82.79L82.244 159.356C82.2534 158.88 82.1554 158.455 81.95 158.082C81.7447 157.709 81.46 157.419 81.096 157.214C80.7414 156.999 80.326 156.892 79.85 156.892C79.3834 156.892 78.968 156.999 78.604 157.214C78.24 157.419 77.9554 157.713 77.75 158.096C77.5447 158.469 77.442 158.899 77.442 159.384V159.608C77.442 160.103 77.554 160.546 77.778 160.938C78.0114 161.321 78.3334 161.619 78.744 161.834C79.1547 162.049 79.626 162.156 80.158 162.156C80.5967 162.156 80.9934 162.081 81.348 161.932C81.712 161.783 82.0294 161.559 82.3 161.26L83.042 162.128C82.706 162.52 82.286 162.819 81.782 163.024C81.2874 163.229 80.732 163.332 80.116 163.332ZM85.074 163.36C84.9527 163.36 84.822 163.346 84.682 163.318C84.5513 163.299 84.4067 163.271 84.248 163.234L84.332 162.1C84.3973 162.109 84.458 162.119 84.514 162.128C84.57 162.137 84.6213 162.142 84.668 162.142C84.9667 162.142 85.2 162.039 85.368 161.834C85.5453 161.629 85.676 161.358 85.76 161.022C85.844 160.677 85.9047 160.289 85.942 159.86C85.9793 159.431 86.0073 159.001 86.026 158.572L86.152 155.828H91.85V163.248H90.506V156.612L90.828 157.004H87.02L87.328 156.598L87.23 158.656C87.202 159.309 87.1507 159.921 87.076 160.49C87.0013 161.059 86.8847 161.559 86.726 161.988C86.5767 162.417 86.3667 162.753 86.096 162.996C85.8347 163.239 85.494 163.36 85.074 163.36ZM98.9988 163.248V161.68L98.9288 161.386V158.712C98.9288 158.143 98.7608 157.704 98.4248 157.396C98.0981 157.079 97.6034 156.92 96.9408 156.92C96.5021 156.92 96.0728 156.995 95.6528 157.144C95.2328 157.284 94.8781 157.475 94.5888 157.718L94.0288 156.71C94.4114 156.402 94.8688 156.169 95.4008 156.01C95.9421 155.842 96.5068 155.758 97.0948 155.758C98.1121 155.758 98.8961 156.005 99.4468 156.5C99.9974 156.995 100.273 157.751 100.273 158.768V163.248H98.9988ZM96.5628 163.332C96.0121 163.332 95.5268 163.239 95.1068 163.052C94.6961 162.865 94.3788 162.609 94.1548 162.282C93.9308 161.946 93.8188 161.568 93.8188 161.148C93.8188 160.747 93.9121 160.383 94.0988 160.056C94.2948 159.729 94.6074 159.468 95.0368 159.272C95.4754 159.076 96.0634 158.978 96.8008 158.978H99.1528V159.944H96.8568C96.1848 159.944 95.7321 160.056 95.4988 160.28C95.2654 160.504 95.1488 160.775 95.1488 161.092C95.1488 161.456 95.2934 161.75 95.5828 161.974C95.8721 162.189 96.2734 162.296 96.7868 162.296C97.2908 162.296 97.7294 162.184 98.1028 161.96C98.4854 161.736 98.7608 161.409 98.9288 160.98L99.1948 161.904C99.0174 162.343 98.7048 162.693 98.2568 162.954C97.8088 163.206 97.2441 163.332 96.5628 163.332ZM102.693 163.248V155.828H104.037V158.978H108.265V155.828H109.609V163.248H108.265V160.14H104.037V163.248H102.693ZM115.4 163.332C114.654 163.332 113.991 163.169 113.412 162.842C112.834 162.515 112.376 162.067 112.04 161.498C111.704 160.919 111.536 160.266 111.536 159.538C111.536 158.801 111.704 158.147 112.04 157.578C112.376 157.009 112.834 156.565 113.412 156.248C113.991 155.921 114.654 155.758 115.4 155.758C116.138 155.758 116.796 155.921 117.374 156.248C117.962 156.565 118.42 157.009 118.746 157.578C119.082 158.138 119.25 158.791 119.25 159.538C119.25 160.275 119.082 160.929 118.746 161.498C118.42 162.067 117.962 162.515 117.374 162.842C116.796 163.169 116.138 163.332 115.4 163.332ZM115.4 162.156C115.876 162.156 116.301 162.049 116.674 161.834C117.057 161.619 117.356 161.316 117.57 160.924C117.785 160.523 117.892 160.061 117.892 159.538C117.892 159.006 117.785 158.549 117.57 158.166C117.356 157.774 117.057 157.471 116.674 157.256C116.301 157.041 115.876 156.934 115.4 156.934C114.924 156.934 114.5 157.041 114.126 157.256C113.753 157.471 113.454 157.774 113.23 158.166C113.006 158.549 112.894 159.006 112.894 159.538C112.894 160.061 113.006 160.523 113.23 160.924C113.454 161.316 113.753 161.619 114.126 161.834C114.5 162.049 114.924 162.156 115.4 162.156ZM62.1207 183.388C61.5421 183.388 60.9634 183.327 60.3847 183.206C59.8154 183.085 59.2881 182.903 58.8027 182.66L59.3907 181.134C59.7734 181.321 60.1887 181.465 60.6367 181.568C61.0941 181.661 61.5561 181.708 62.0227 181.708C62.3587 181.708 62.6481 181.675 62.8907 181.61C63.1427 181.535 63.3341 181.433 63.4647 181.302C63.5954 181.171 63.6607 181.013 63.6607 180.826C63.6607 180.583 63.5581 180.401 63.3527 180.28C63.1474 180.149 62.8487 180.084 62.4567 180.084H60.6507V178.726H62.2747C62.5267 178.726 62.7414 178.698 62.9187 178.642C63.0961 178.586 63.2267 178.507 63.3107 178.404C63.4041 178.292 63.4507 178.161 63.4507 178.012C63.4507 177.853 63.3947 177.718 63.2827 177.606C63.1707 177.494 63.0074 177.41 62.7927 177.354C62.5781 177.289 62.3074 177.256 61.9807 177.256C61.6074 177.256 61.2201 177.303 60.8187 177.396C60.4174 177.48 60.0067 177.606 59.5867 177.774L59.0547 176.262C59.5494 176.057 60.0394 175.893 60.5247 175.772C61.0101 175.651 61.4907 175.585 61.9667 175.576C62.6667 175.557 63.2967 175.632 63.8567 175.8C64.4167 175.968 64.8554 176.211 65.1727 176.528C65.4994 176.845 65.6627 177.233 65.6627 177.69C65.6627 178.054 65.5507 178.381 65.3267 178.67C65.1121 178.959 64.8134 179.188 64.4307 179.356C64.0481 179.515 63.6187 179.594 63.1427 179.594L63.1987 179.16C64.0294 179.16 64.6827 179.328 65.1587 179.664C65.6347 179.991 65.8727 180.439 65.8727 181.008C65.8727 181.493 65.7047 181.918 65.3687 182.282C65.0421 182.637 64.5941 182.912 64.0247 183.108C63.4647 183.295 62.8301 183.388 62.1207 183.388ZM71.9421 183.248V181.778L71.8021 181.456V178.824C71.8021 178.357 71.6574 177.993 71.3681 177.732C71.0881 177.471 70.6541 177.34 70.0661 177.34C69.6647 177.34 69.2681 177.405 68.8761 177.536C68.4934 177.657 68.1667 177.825 67.8961 178.04L67.1121 176.514C67.5227 176.225 68.0174 176.001 68.5961 175.842C69.1747 175.683 69.7627 175.604 70.3601 175.604C71.5081 175.604 72.3994 175.875 73.0341 176.416C73.6687 176.957 73.9861 177.802 73.9861 178.95V183.248H71.9421ZM69.6461 183.36C69.0581 183.36 68.5541 183.262 68.1341 183.066C67.7141 182.861 67.3921 182.585 67.1681 182.24C66.9441 181.895 66.8321 181.507 66.8321 181.078C66.8321 180.63 66.9394 180.238 67.1541 179.902C67.3781 179.566 67.7281 179.305 68.2041 179.118C68.6801 178.922 69.3007 178.824 70.0661 178.824H72.0681V180.098H70.3041C69.7907 180.098 69.4361 180.182 69.2401 180.35C69.0534 180.518 68.9601 180.728 68.9601 180.98C68.9601 181.26 69.0674 181.484 69.2821 181.652C69.5061 181.811 69.8094 181.89 70.1921 181.89C70.5561 181.89 70.8827 181.806 71.1721 181.638C71.4614 181.461 71.6714 181.204 71.8021 180.868L72.1381 181.876C71.9794 182.361 71.6901 182.73 71.2701 182.982C70.8501 183.234 70.3087 183.36 69.6461 183.36ZM81.2173 183.248L78.6973 179.678L80.4753 178.628L83.7933 183.248H81.2173ZM75.8833 183.248V175.716H78.0673V183.248H75.8833ZM77.4233 180.392V178.642H80.0553V180.392H77.4233ZM80.6853 179.734L78.6413 179.51L81.2873 175.716H83.6113L80.6853 179.734ZM89.237 183.248V181.778L89.097 181.456V178.824C89.097 178.357 88.9523 177.993 88.663 177.732C88.383 177.471 87.949 177.34 87.361 177.34C86.9597 177.34 86.563 177.405 86.171 177.536C85.7883 177.657 85.4617 177.825 85.191 178.04L84.407 176.514C84.8177 176.225 85.3123 176.001 85.891 175.842C86.4697 175.683 87.0577 175.604 87.655 175.604C88.803 175.604 89.6943 175.875 90.329 176.416C90.9637 176.957 91.281 177.802 91.281 178.95V183.248H89.237ZM86.941 183.36C86.353 183.36 85.849 183.262 85.429 183.066C85.009 182.861 84.687 182.585 84.463 182.24C84.239 181.895 84.127 181.507 84.127 181.078C84.127 180.63 84.2343 180.238 84.449 179.902C84.673 179.566 85.023 179.305 85.499 179.118C85.975 178.922 86.5957 178.824 87.361 178.824H89.363V180.098H87.599C87.0857 180.098 86.731 180.182 86.535 180.35C86.3483 180.518 86.255 180.728 86.255 180.98C86.255 181.26 86.3623 181.484 86.577 181.652C86.801 181.811 87.1043 181.89 87.487 181.89C87.851 181.89 88.1777 181.806 88.467 181.638C88.7563 181.461 88.9663 181.204 89.097 180.868L89.433 181.876C89.2743 182.361 88.985 182.73 88.565 182.982C88.145 183.234 87.6037 183.36 86.941 183.36ZM95.7262 183.388C95.1475 183.388 94.5689 183.327 93.9902 183.206C93.4209 183.085 92.8935 182.903 92.4082 182.66L92.9962 181.134C93.3789 181.321 93.7942 181.465 94.2422 181.568C94.6995 181.661 95.1615 181.708 95.6282 181.708C95.9642 181.708 96.2535 181.675 96.4962 181.61C96.7482 181.535 96.9395 181.433 97.0702 181.302C97.2009 181.171 97.2662 181.013 97.2662 180.826C97.2662 180.583 97.1635 180.401 96.9582 180.28C96.7529 180.149 96.4542 180.084 96.0622 180.084H94.2562V178.726H95.8802C96.1322 178.726 96.3469 178.698 96.5242 178.642C96.7015 178.586 96.8322 178.507 96.9162 178.404C97.0095 178.292 97.0562 178.161 97.0562 178.012C97.0562 177.853 97.0002 177.718 96.8882 177.606C96.7762 177.494 96.6129 177.41 96.3982 177.354C96.1835 177.289 95.9129 177.256 95.5862 177.256C95.2129 177.256 94.8255 177.303 94.4242 177.396C94.0229 177.48 93.6122 177.606 93.1922 177.774L92.6602 176.262C93.1549 176.057 93.6449 175.893 94.1302 175.772C94.6155 175.651 95.0962 175.585 95.5722 175.576C96.2722 175.557 96.9022 175.632 97.4622 175.8C98.0222 175.968 98.4609 176.211 98.7782 176.528C99.1049 176.845 99.2682 177.233 99.2682 177.69C99.2682 178.054 99.1562 178.381 98.9322 178.67C98.7175 178.959 98.4189 179.188 98.0362 179.356C97.6535 179.515 97.2242 179.594 96.7482 179.594L96.8042 179.16C97.6349 179.16 98.2882 179.328 98.7642 179.664C99.2402 179.991 99.4782 180.439 99.4782 181.008C99.4782 181.493 99.3102 181.918 98.9742 182.282C98.6475 182.637 98.1995 182.912 97.6302 183.108C97.0702 183.295 96.4355 183.388 95.7262 183.388ZM104.568 183.36C103.765 183.36 103.051 183.192 102.426 182.856C101.81 182.52 101.32 182.063 100.956 181.484C100.601 180.896 100.424 180.229 100.424 179.482C100.424 178.726 100.601 178.059 100.956 177.48C101.32 176.892 101.81 176.435 102.426 176.108C103.051 175.772 103.765 175.604 104.568 175.604C105.361 175.604 106.07 175.772 106.696 176.108C107.321 176.435 107.811 176.887 108.166 177.466C108.52 178.045 108.698 178.717 108.698 179.482C108.698 180.229 108.52 180.896 108.166 181.484C107.811 182.063 107.321 182.52 106.696 182.856C106.07 183.192 105.361 183.36 104.568 183.36ZM104.568 181.568C104.932 181.568 105.258 181.484 105.548 181.316C105.837 181.148 106.066 180.91 106.234 180.602C106.402 180.285 106.486 179.911 106.486 179.482C106.486 179.043 106.402 178.67 106.234 178.362C106.066 178.054 105.837 177.816 105.548 177.648C105.258 177.48 104.932 177.396 104.568 177.396C104.204 177.396 103.877 177.48 103.588 177.648C103.298 177.816 103.065 178.054 102.888 178.362C102.72 178.67 102.636 179.043 102.636 179.482C102.636 179.911 102.72 180.285 102.888 180.602C103.065 180.91 103.298 181.148 103.588 181.316C103.877 181.484 104.204 181.568 104.568 181.568ZM110.2 183.248V175.716H114.05C114.992 175.716 115.73 175.889 116.262 176.234C116.794 176.57 117.06 177.046 117.06 177.662C117.06 178.278 116.808 178.763 116.304 179.118C115.809 179.463 115.151 179.636 114.33 179.636L114.554 179.132C115.468 179.132 116.15 179.3 116.598 179.636C117.055 179.972 117.284 180.462 117.284 181.106C117.284 181.769 117.032 182.291 116.528 182.674C116.024 183.057 115.254 183.248 114.218 183.248H110.2ZM112.202 181.764H114.036C114.437 181.764 114.736 181.699 114.932 181.568C115.137 181.428 115.24 181.218 115.24 180.938C115.24 180.649 115.146 180.439 114.96 180.308C114.773 180.168 114.479 180.098 114.078 180.098H112.202V181.764ZM112.202 178.81H113.854C114.236 178.81 114.521 178.74 114.708 178.6C114.904 178.46 115.002 178.259 115.002 177.998C115.002 177.727 114.904 177.527 114.708 177.396C114.521 177.265 114.236 177.2 113.854 177.2H112.202V178.81Z" fill="#333333"/>
<path d="M53.2669 630.829C52.5202 630.829 51.8295 630.707 51.1949 630.465C50.5695 630.213 50.0235 629.863 49.5569 629.415C49.0995 628.957 48.7402 628.425 48.4789 627.819C48.2175 627.212 48.0869 626.545 48.0869 625.817C48.0869 625.089 48.2175 624.421 48.4789 623.815C48.7402 623.208 49.1042 622.681 49.5709 622.233C50.0375 621.775 50.5835 621.425 51.2089 621.183C51.8435 620.931 52.5342 620.805 53.2809 620.805C54.0369 620.805 54.7322 620.935 55.3669 621.197C56.0109 621.449 56.5569 621.827 57.0049 622.331L56.0949 623.213C55.7215 622.821 55.3015 622.531 54.8349 622.345C54.3682 622.149 53.8689 622.051 53.3369 622.051C52.7862 622.051 52.2729 622.144 51.7969 622.331C51.3302 622.517 50.9242 622.779 50.5789 623.115C50.2335 623.451 49.9629 623.852 49.7669 624.319C49.5802 624.776 49.4869 625.275 49.4869 625.817C49.4869 626.358 49.5802 626.862 49.7669 627.329C49.9629 627.786 50.2335 628.183 50.5789 628.519C50.9242 628.855 51.3302 629.116 51.7969 629.303C52.2729 629.489 52.7862 629.583 53.3369 629.583C53.8689 629.583 54.3682 629.489 54.8349 629.303C55.3015 629.107 55.7215 628.808 56.0949 628.407L57.0049 629.289C56.5569 629.793 56.0109 630.175 55.3669 630.437C54.7322 630.698 54.0322 630.829 53.2669 630.829ZM60.6613 628.281C59.7653 628.281 59.0559 628.071 58.5333 627.651C58.0199 627.231 57.7633 626.582 57.7633 625.705V623.297H59.1073V625.621C59.1073 626.153 59.2706 626.545 59.5973 626.797C59.9333 627.049 60.3813 627.175 60.9413 627.175C61.2959 627.175 61.6599 627.128 62.0333 627.035C62.4159 626.941 62.7893 626.811 63.1533 626.643V627.679C62.7613 627.865 62.3553 628.015 61.9353 628.127C61.5246 628.229 61.0999 628.281 60.6613 628.281ZM63.0553 630.717V623.297H64.3993V630.717H63.0553ZM71.5585 630.717V629.149L71.4885 628.855V626.181C71.4885 625.611 71.3205 625.173 70.9845 624.865C70.6579 624.547 70.1632 624.389 69.5005 624.389C69.0619 624.389 68.6325 624.463 68.2125 624.613C67.7925 624.753 67.4379 624.944 67.1485 625.187L66.5885 624.179C66.9712 623.871 67.4285 623.637 67.9605 623.479C68.5019 623.311 69.0665 623.227 69.6545 623.227C70.6719 623.227 71.4559 623.474 72.0065 623.969C72.5572 624.463 72.8325 625.219 72.8325 626.237V630.717H71.5585ZM69.1225 630.801C68.5719 630.801 68.0865 630.707 67.6665 630.521C67.2559 630.334 66.9385 630.077 66.7145 629.751C66.4905 629.415 66.3785 629.037 66.3785 628.617C66.3785 628.215 66.4719 627.851 66.6585 627.525C66.8545 627.198 67.1672 626.937 67.5965 626.741C68.0352 626.545 68.6232 626.447 69.3605 626.447H71.7125V627.413H69.4165C68.7445 627.413 68.2919 627.525 68.0585 627.749C67.8252 627.973 67.7085 628.243 67.7085 628.561C67.7085 628.925 67.8532 629.219 68.1425 629.443C68.4319 629.657 68.8332 629.765 69.3465 629.765C69.8505 629.765 70.2892 629.653 70.6625 629.429C71.0452 629.205 71.3205 628.878 71.4885 628.449L71.7545 629.373C71.5772 629.811 71.2645 630.161 70.8165 630.423C70.3685 630.675 69.8039 630.801 69.1225 630.801ZM78.4867 630.801C77.7307 630.801 77.054 630.637 76.4567 630.311C75.8687 629.984 75.4067 629.536 75.0707 628.967C74.7347 628.397 74.5667 627.744 74.5667 627.007C74.5667 626.269 74.7347 625.616 75.0707 625.047C75.4067 624.477 75.8687 624.034 76.4567 623.717C77.054 623.39 77.7307 623.227 78.4867 623.227C79.1587 623.227 79.756 623.362 80.2787 623.633C80.8107 623.894 81.2213 624.286 81.5107 624.809L80.4887 625.467C80.246 625.103 79.9473 624.837 79.5927 624.669C79.2473 624.491 78.874 624.403 78.4727 624.403C77.9873 624.403 77.5533 624.51 77.1707 624.725C76.788 624.939 76.4847 625.243 76.2607 625.635C76.0367 626.017 75.9247 626.475 75.9247 627.007C75.9247 627.539 76.0367 628.001 76.2607 628.393C76.4847 628.785 76.788 629.088 77.1707 629.303C77.5533 629.517 77.9873 629.625 78.4727 629.625C78.874 629.625 79.2473 629.541 79.5927 629.373C79.9473 629.195 80.246 628.925 80.4887 628.561L81.5107 629.205C81.2213 629.718 80.8107 630.115 80.2787 630.395C79.756 630.665 79.1587 630.801 78.4867 630.801ZM84.625 630.717V624.123L84.961 624.473H81.909V623.297H88.685V624.473H85.647L85.969 624.123V630.717H84.625ZM89.1748 630.829C89.0535 630.829 88.9228 630.815 88.7828 630.787C88.6521 630.768 88.5075 630.74 88.3488 630.703L88.4328 629.569C88.4981 629.578 88.5588 629.587 88.6148 629.597C88.6708 629.606 88.7221 629.611 88.7688 629.611C89.0675 629.611 89.3008 629.508 89.4688 629.303C89.6461 629.097 89.7768 628.827 89.8608 628.491C89.9448 628.145 90.0055 627.758 90.0428 627.329C90.0801 626.899 90.1081 626.47 90.1268 626.041L90.2528 623.297H95.9508V630.717H94.6068V624.081L94.9288 624.473H91.1208L91.4288 624.067L91.3308 626.125C91.3028 626.778 91.2515 627.389 91.1768 627.959C91.1021 628.528 90.9855 629.027 90.8268 629.457C90.6775 629.886 90.4675 630.222 90.1968 630.465C89.9355 630.707 89.5948 630.829 89.1748 630.829ZM98.5495 630.717V623.297H99.8935V628.701L104.444 623.297H105.662V630.717H104.318V625.313L99.7815 630.717H98.5495ZM108.27 630.717V623.297H111.714C112.582 623.297 113.264 623.465 113.758 623.801C114.262 624.127 114.514 624.594 114.514 625.201C114.514 625.807 114.276 626.279 113.8 626.615C113.334 626.941 112.713 627.105 111.938 627.105L112.148 626.741C113.035 626.741 113.693 626.904 114.122 627.231C114.552 627.557 114.766 628.038 114.766 628.673C114.766 629.317 114.524 629.821 114.038 630.185C113.562 630.539 112.83 630.717 111.84 630.717H108.27ZM109.586 629.681H111.742C112.302 629.681 112.722 629.597 113.002 629.429C113.282 629.251 113.422 628.971 113.422 628.589C113.422 628.197 113.292 627.912 113.03 627.735C112.778 627.548 112.377 627.455 111.826 627.455H109.586V629.681ZM109.586 626.489H111.602C112.116 626.489 112.503 626.395 112.764 626.209C113.035 626.013 113.17 625.742 113.17 625.397C113.17 625.042 113.035 624.776 112.764 624.599C112.503 624.421 112.116 624.333 111.602 624.333H109.586V626.489ZM119.992 630.731L116.87 630.717V623.297H118.214V625.803L120.216 625.817C121.159 625.826 121.873 626.041 122.358 626.461C122.853 626.881 123.1 627.473 123.1 628.239C123.1 629.041 122.829 629.662 122.288 630.101C121.756 630.53 120.991 630.74 119.992 630.731ZM119.894 629.709C120.491 629.718 120.949 629.597 121.266 629.345C121.583 629.093 121.742 628.719 121.742 628.225C121.742 627.739 121.583 627.385 121.266 627.161C120.958 626.937 120.501 626.82 119.894 626.811L118.214 626.783V629.695L119.894 629.709ZM124.206 630.717V623.297H125.55V630.717H124.206ZM126.987 630.717L130.179 626.573L130.165 627.259L127.127 623.297H128.625L130.949 626.349H130.375L132.699 623.297H134.169L131.089 627.287L131.103 626.573L134.323 630.717H132.797L130.347 627.469L130.893 627.553L128.485 630.717H126.987ZM51.9747 650.871C51.8067 650.871 51.6293 650.857 51.4427 650.829C51.256 650.801 51.0553 650.759 50.8407 650.703L50.9527 648.911C51.0087 648.92 51.0647 648.929 51.1207 648.939C51.1767 648.939 51.228 648.939 51.2747 648.939C51.536 648.939 51.7413 648.864 51.8907 648.715C52.04 648.565 52.152 648.365 52.2267 648.113C52.3013 647.851 52.3527 647.557 52.3807 647.231C52.418 646.904 52.446 646.563 52.4647 646.209L52.5767 643.185H59.0167V650.717H56.8327V644.445L57.3227 644.977H54.0187L54.4807 644.417L54.3827 646.307C54.3547 646.979 54.2987 647.595 54.2147 648.155C54.14 648.715 54.014 649.2 53.8367 649.611C53.6593 650.012 53.4213 650.325 53.1227 650.549C52.824 650.763 52.4413 650.871 51.9747 650.871ZM68.2429 650.829C67.4682 650.829 66.7775 650.661 66.1709 650.325C65.5642 649.989 65.0882 649.531 64.7429 648.953C64.3975 648.365 64.2249 647.697 64.2249 646.951C64.2249 646.195 64.3975 645.527 64.7429 644.949C65.0882 644.361 65.5642 643.903 66.1709 643.577C66.7775 643.241 67.4682 643.073 68.2429 643.073C69.0175 643.073 69.7035 643.241 70.3009 643.577C70.9075 643.903 71.3835 644.361 71.7289 644.949C72.0742 645.527 72.2469 646.195 72.2469 646.951C72.2469 647.697 72.0742 648.365 71.7289 648.953C71.3835 649.541 70.9075 650.003 70.3009 650.339C69.7035 650.665 69.0175 650.829 68.2429 650.829ZM61.1169 650.717V643.185H63.2869V645.957H65.4989V647.847H63.2869V650.717H61.1169ZM68.2429 649.037C68.5975 649.037 68.9102 648.953 69.1809 648.785C69.4609 648.617 69.6802 648.379 69.8389 648.071C70.0069 647.753 70.0909 647.38 70.0909 646.951C70.0909 646.512 70.0069 646.139 69.8389 645.831C69.6802 645.523 69.4609 645.285 69.1809 645.117C68.9102 644.949 68.5975 644.865 68.2429 644.865C67.8975 644.865 67.5802 644.949 67.2909 645.117C67.0109 645.285 66.7869 645.523 66.6189 645.831C66.4602 646.139 66.3809 646.512 66.3809 646.951C66.3809 647.38 66.4602 647.753 66.6189 648.071C66.7869 648.379 67.0109 648.617 67.2909 648.785C67.5802 648.953 67.8975 649.037 68.2429 649.037ZM77.5014 650.885C76.8854 650.885 76.3254 650.796 75.8214 650.619C75.3174 650.432 74.8787 650.147 74.5054 649.765C74.1414 649.373 73.8567 648.873 73.6514 648.267C73.4554 647.66 73.3574 646.937 73.3574 646.097C73.3574 645.499 73.4087 644.953 73.5114 644.459C73.614 643.964 73.768 643.516 73.9734 643.115C74.1787 642.704 74.44 642.345 74.7574 642.037C75.084 641.719 75.462 641.458 75.8914 641.253C76.33 641.038 76.8247 640.875 77.3754 640.763L80.9594 640.049L81.2534 641.925L78.0894 642.555C77.9027 642.592 77.688 642.643 77.4454 642.709C77.212 642.765 76.974 642.853 76.7314 642.975C76.498 643.096 76.2787 643.269 76.0734 643.493C75.8774 643.707 75.7187 643.992 75.5974 644.347C75.476 644.692 75.4154 645.121 75.4154 645.635C75.4154 645.793 75.42 645.915 75.4294 645.999C75.448 646.083 75.462 646.171 75.4714 646.265C75.49 646.358 75.4994 646.503 75.4994 646.699L74.7994 646.013C75.0047 645.574 75.266 645.201 75.5834 644.893C75.91 644.585 76.2834 644.351 76.7034 644.193C77.1327 644.025 77.6087 643.941 78.1314 643.941C78.8407 643.941 79.4614 644.085 79.9934 644.375C80.5347 644.655 80.9547 645.051 81.2534 645.565C81.552 646.078 81.7014 646.661 81.7014 647.315C81.7014 648.024 81.524 648.649 81.1694 649.191C80.8147 649.723 80.32 650.138 79.6854 650.437C79.06 650.735 78.332 650.885 77.5014 650.885ZM77.6134 649.191C77.9774 649.191 78.2994 649.111 78.5794 648.953C78.8594 648.785 79.074 648.565 79.2234 648.295C79.382 648.015 79.4614 647.702 79.4614 647.357C79.4614 647.021 79.382 646.722 79.2234 646.461C79.074 646.199 78.8594 645.994 78.5794 645.845C78.2994 645.695 77.9727 645.621 77.5994 645.621C77.2354 645.621 76.9087 645.695 76.6194 645.845C76.33 645.985 76.106 646.181 75.9474 646.433C75.7887 646.685 75.7094 646.979 75.7094 647.315C75.7094 647.66 75.7887 647.977 75.9474 648.267C76.1154 648.547 76.3394 648.771 76.6194 648.939C76.9087 649.107 77.24 649.191 77.6134 649.191ZM83.1833 650.717V643.185H85.3533V647.665L89.0213 643.185H91.0233V650.717H88.8533V646.237L85.1993 650.717H83.1833ZM93.1227 650.717V643.185H95.4047L98.2467 648.337H97.3367L100.375 643.185H102.419L102.447 650.717H100.473V645.425L100.809 645.649L98.2187 649.989H97.2947L94.6907 645.495L95.0967 645.397V650.717H93.1227ZM104.539 650.717V643.185H106.709V648.925H109.747V643.185H111.931V650.717H104.539ZM110.993 652.341V650.689L111.497 650.717H109.747V648.925H113.023V652.341H110.993ZM118.078 650.829C117.22 650.829 116.464 650.661 115.81 650.325C115.166 649.989 114.667 649.531 114.312 648.953C113.958 648.365 113.78 647.697 113.78 646.951C113.78 646.195 113.953 645.527 114.298 644.949C114.653 644.361 115.134 643.903 115.74 643.577C116.347 643.241 117.033 643.073 117.798 643.073C118.536 643.073 119.198 643.231 119.786 643.549C120.384 643.857 120.855 644.305 121.2 644.893C121.546 645.471 121.718 646.167 121.718 646.979C121.718 647.063 121.714 647.161 121.704 647.273C121.695 647.375 121.686 647.473 121.676 647.567H115.558V646.293H120.528L119.688 646.671C119.688 646.279 119.609 645.938 119.45 645.649C119.292 645.359 119.072 645.135 118.792 644.977C118.512 644.809 118.186 644.725 117.812 644.725C117.439 644.725 117.108 644.809 116.818 644.977C116.538 645.135 116.319 645.364 116.16 645.663C116.002 645.952 115.922 646.297 115.922 646.699V647.035C115.922 647.445 116.011 647.809 116.188 648.127C116.375 648.435 116.632 648.673 116.958 648.841C117.294 648.999 117.686 649.079 118.134 649.079C118.536 649.079 118.886 649.018 119.184 648.897C119.492 648.775 119.772 648.593 120.024 648.351L121.186 649.611C120.841 650.003 120.407 650.306 119.884 650.521C119.362 650.726 118.76 650.829 118.078 650.829ZM123.392 650.717V643.185H127.242C128.185 643.185 128.922 643.357 129.454 643.703C129.986 644.039 130.252 644.515 130.252 645.131C130.252 645.747 130 646.232 129.496 646.587C129.002 646.932 128.344 647.105 127.522 647.105L127.746 646.601C128.661 646.601 129.342 646.769 129.79 647.105C130.248 647.441 130.476 647.931 130.476 648.575C130.476 649.237 130.224 649.76 129.72 650.143C129.216 650.525 128.446 650.717 127.41 650.717H123.392ZM125.394 649.233H127.228C127.63 649.233 127.928 649.167 128.124 649.037C128.33 648.897 128.432 648.687 128.432 648.407C128.432 648.117 128.339 647.907 128.152 647.777C127.966 647.637 127.672 647.567 127.27 647.567H125.394V649.233ZM125.394 646.279H127.046C127.429 646.279 127.714 646.209 127.9 646.069C128.096 645.929 128.194 645.728 128.194 645.467C128.194 645.196 128.096 644.995 127.9 644.865C127.714 644.734 127.429 644.669 127.046 644.669H125.394V646.279Z" fill="#333333"/>
<path d="M148.462 48.7725C110.967 -23.9959 63.8815 5.82393 34.6722 37.6314C26.6747 46.3403 21.78 57.7539 22.6683 69.5445C26.2521 117.114 67.2504 134.471 96.1071 134.471C168.446 127.006 170.054 85.9471 148.462 48.7725Z" fill="#83BF13"/>
<path d="M139.519 47.2485C98.2559 -28.155 53.4612 5.56676 24.9338 39.9441C17.4109 49.0098 12.8719 60.4694 13.9547 72.2C18.5975 122.501 62.0439 139.694 92.2204 138.876C167.207 129.038 163.016 85.4894 139.519 47.2485Z" stroke="black" stroke-width="0.5" stroke-dasharray="2 2"/>
<path fill-rule="evenodd" clip-rule="evenodd" d="M78.9006 94.3333H67.8833V57.24L56.1893 60.1882V50.1091L78.9006 45.4473V94.3333ZM114.103 48.4638C111.174 46.4526 107.682 45.4473 103.626 45.4473C99.7507 45.4473 96.326 46.4527 93.3519 48.4638C90.3778 50.4293 88.0566 53.2635 86.3893 56.9659C84.7671 60.6683 83.9565 65.1249 83.9565 70.3356C83.9565 75.5463 84.7671 80.0029 86.3893 83.7053C88.0566 87.4077 90.3778 90.2646 93.3519 92.2758C96.326 94.2412 99.7506 95.2239 103.626 95.2239C107.214 95.2239 110.36 94.4541 113.066 92.916C111.97 91.2835 111.331 89.3291 111.331 87.2282C111.331 81.5088 116.06 76.8723 121.893 76.8723C122.199 76.8723 122.503 76.8855 122.802 76.9106C123.131 74.8716 123.295 72.6799 123.295 70.3356C123.295 65.1249 122.485 60.6683 120.863 56.9659C119.285 53.2635 117.032 50.4293 114.103 48.4638ZM103.626 55.3889C102.319 55.3889 101.125 55.7547 100.044 56.486C99.0072 57.1717 98.106 58.1771 97.34 59.5026C96.5739 60.7824 95.988 62.3594 95.5824 64.2335C95.1769 66.0618 94.9739 68.0959 94.9739 70.3356C94.9739 72.5752 95.1769 74.6321 95.5824 76.5061C95.988 78.3344 96.5739 79.9115 97.34 81.237C98.106 82.5168 99.0071 83.5229 100.044 84.2542C101.125 84.9398 102.319 85.2823 103.626 85.2823C104.933 85.2823 106.105 84.9398 107.141 84.2542C108.222 83.5229 109.146 82.5168 109.912 81.237C110.678 79.9115 111.264 78.3344 111.669 76.5061C112.075 74.6321 112.278 72.5752 112.278 70.3356C112.278 68.0959 112.075 66.0618 111.669 64.2335C111.264 62.3594 110.678 60.7824 109.912 59.5026C109.146 58.1771 108.222 57.1716 107.141 56.486C106.105 55.7547 104.933 55.3889 103.626 55.3889ZM116.142 81.2487H119.277V86.0888L124.274 81.2487H128.178L122.323 86.948L128.769 95.0471H124.895L119.277 88.0525V95.0471H116.142V81.2487ZM42.2012 74.201V77.3806H48.0565V83.4699H51.3981V77.3806H57.2534V74.201H51.3981V68.1416H48.0565V74.201H42.2012Z" fill="white"/>
<path d="M33.3612 511.526C71.3473 437.312 119.475 472.306 147.427 504.727C152.621 510.751 155.791 518.363 155.692 526.311C155.063 576.968 113.264 595.261 84.1759 595.261C13.9646 587.967 12.4043 547.849 33.3612 511.526Z" fill="#83BF13"/>
<path d="M55.2923 539.255V536.245H69.7704V539.255H55.2923ZM60.9242 530.508H64.1385V545.02H60.9242V530.508Z" fill="white"/>
<path d="M102.075 542.917H105.09V555.98H102.075V542.917ZM109.897 542.917H113.652L108.02 548.313L114.221 555.98H110.494L104.237 548.313L109.897 542.917Z" fill="white"/>
<path d="M75.1275 523.654V514.112L96.9726 509.698V555.979H86.3752V520.863L75.1275 523.654Z" fill="white"/>
<path d="M33.3612 511.526C71.3473 437.312 119.475 472.306 147.427 504.727C152.621 510.751 155.791 518.363 155.692 526.311C155.063 576.968 113.264 595.261 84.1759 595.261C13.9646 587.967 12.4043 547.849 33.3612 511.526Z" fill="#83BF13"/>
<path d="M55.2923 539.255V536.245H69.7704V539.255H55.2923ZM60.9242 530.508H64.1385V545.02H60.9242V530.508Z" fill="white"/>
<path d="M102.075 542.917H105.09V555.98H102.075V542.917ZM109.897 542.917H113.652L108.02 548.313L114.221 555.98H110.494L104.237 548.313L109.897 542.917Z" fill="white"/>
<path d="M75.1275 523.654V514.112L96.9726 509.698V555.979H86.3752V520.863L75.1275 523.654Z" fill="white"/>
<path d="M142.492 491.026C73.5026 426.561 42.0272 493.507 26.7668 538.543C25.0361 543.65 23.913 549.011 24.2091 554.395C26.9852 604.878 85.4038 610.712 116.009 599.691C167.202 570.027 177.462 520.554 142.492 491.026Z" stroke="black" stroke-width="0.5" stroke-dasharray="2.5 2.5"/>
<path d="M144.583 279.524C102.74 196.619 42.0092 235.242 30.9745 279.524C19.9399 351.963 63.2922 368.202 94.674 368.202C156.367 360.59 165.591 316.451 144.583 279.524Z" fill="#83BF13"/>
<path d="M132.488 345.496C186.765 282.033 140.149 249.438 98.8577 234.424C87.7864 230.398 75.43 230.235 64.8732 235.463C21.0759 257.154 20.466 302.466 31.6014 329.585C66.4718 394.49 105.773 380.113 132.488 345.496Z" stroke="black" stroke-width="0.5" stroke-dasharray="2.5 2.5"/>
<path d="M45.4473 306.277V302.973H61.0149V306.277H45.4473ZM51.503 296.678H54.9591V312.603H51.503V296.678Z" fill="white"/>
<path d="M113.545 310.295H116.787V324.63H113.545V310.295ZM121.956 310.295H125.993L119.937 316.216L126.605 324.63H122.598L115.87 316.216L121.956 310.295Z" fill="white"/>
<path d="M66.6397 324.63L88.4509 301.623C89.7558 300.151 90.8743 298.821 91.8065 297.634C92.7852 296.447 93.5075 295.283 93.9736 294.144C94.4862 292.956 94.7426 291.698 94.7426 290.368C94.7426 289.609 94.6028 288.849 94.3231 288.089C94.0435 287.329 93.6241 286.664 93.0648 286.094C92.5055 285.477 91.8064 285.002 90.9675 284.67C90.1286 284.29 89.1499 284.1 88.0314 284.1C86.54 284.1 85.2118 284.48 84.0467 285.24C82.9281 285.999 82.0659 287.068 81.4601 288.445C80.9008 289.822 80.6212 291.413 80.6212 293.218H69.0165C69.0165 289.656 69.7388 286.403 71.1836 283.459C72.6284 280.515 74.7955 278.164 77.6851 276.407C80.6212 274.65 84.1865 273.771 88.381 273.771C91.4103 273.771 94.0901 274.246 96.4203 275.196C98.7506 276.098 100.685 277.333 102.223 278.9C103.807 280.42 104.996 282.106 105.788 283.958C106.58 285.81 106.976 287.685 106.976 289.585C106.976 292.292 106.324 294.785 105.019 297.064C103.714 299.296 102.013 301.338 99.9157 303.19L88.5207 313.59H108.095V324.63H66.6397Z" fill="white"/>
<path d="M45.4473 306.277V302.973H61.0149V306.277H45.4473ZM51.503 296.678H54.9591V312.603H51.503V296.678Z" fill="white"/>
<path d="M113.545 310.295H116.787V324.63H113.545V310.295ZM121.956 310.295H125.993L119.937 316.216L126.605 324.63H122.598L115.87 316.216L121.956 310.295Z" fill="white"/>
<path d="M66.6397 324.63L88.4509 301.623C89.7558 300.151 90.8743 298.821 91.8065 297.634C92.7852 296.447 93.5075 295.283 93.9736 294.144C94.4862 292.956 94.7426 291.698 94.7426 290.368C94.7426 289.609 94.6028 288.849 94.3231 288.089C94.0435 287.329 93.6241 286.664 93.0648 286.094C92.5055 285.477 91.8064 285.002 90.9675 284.67C90.1286 284.29 89.1499 284.1 88.0314 284.1C86.54 284.1 85.2118 284.48 84.0467 285.24C82.9281 285.999 82.0659 287.068 81.4601 288.445C80.9008 289.822 80.6212 291.413 80.6212 293.218H69.0165C69.0165 289.656 69.7388 286.403 71.1836 283.459C72.6284 280.515 74.7955 278.164 77.6851 276.407C80.6212 274.65 84.1865 273.771 88.381 273.771C91.4103 273.771 94.0901 274.246 96.4203 275.196C98.7506 276.098 100.685 277.333 102.223 278.9C103.807 280.42 104.996 282.106 105.788 283.958C106.58 285.81 106.976 287.685 106.976 289.585C106.976 292.292 106.324 294.785 105.019 297.064C103.714 299.296 102.013 301.338 99.9157 303.19L88.5207 313.59H108.095V324.63H66.6397Z" fill="white"/>
<path d="M65.6669 399.146V389.346H69.8809C70.9449 389.346 71.7802 389.561 72.3869 389.99C72.9935 390.42 73.2969 391.045 73.2969 391.866C73.2969 392.669 73.0075 393.285 72.4289 393.714C71.8502 394.134 71.0895 394.344 70.1469 394.344L70.3989 393.924C71.4909 393.924 72.3262 394.144 72.9049 394.582C73.4929 395.012 73.7869 395.642 73.7869 396.472C73.7869 397.312 73.4789 397.97 72.8629 398.446C72.2562 398.913 71.3509 399.146 70.1469 399.146H65.6669ZM67.0529 398.04H70.1189C70.8655 398.04 71.4255 397.905 71.7989 397.634C72.1815 397.354 72.3729 396.93 72.3729 396.36C72.3729 395.791 72.1815 395.376 71.7989 395.114C71.4255 394.853 70.8655 394.722 70.1189 394.722H67.0529V398.04ZM67.0529 393.658H69.7829C70.4642 393.658 70.9822 393.523 71.3369 393.252C71.7009 392.982 71.8829 392.585 71.8829 392.062C71.8829 391.53 71.7009 391.129 71.3369 390.858C70.9822 390.588 70.4642 390.452 69.7829 390.452H67.0529V393.658ZM80.4518 399.146V397.578L80.3818 397.284V394.61C80.3818 394.041 80.2138 393.602 79.8778 393.294C79.5512 392.977 79.0565 392.818 78.3939 392.818C77.9552 392.818 77.5258 392.893 77.1058 393.042C76.6858 393.182 76.3312 393.374 76.0418 393.616L75.4818 392.608C75.8645 392.3 76.3218 392.067 76.8538 391.908C77.3952 391.74 77.9598 391.656 78.5478 391.656C79.5652 391.656 80.3492 391.904 80.8998 392.398C81.4505 392.893 81.7258 393.649 81.7258 394.666V399.146H80.4518ZM78.0158 399.23C77.4652 399.23 76.9798 399.137 76.5598 398.95C76.1492 398.764 75.8318 398.507 75.6078 398.18C75.3838 397.844 75.2718 397.466 75.2718 397.046C75.2718 396.645 75.3652 396.281 75.5518 395.954C75.7478 395.628 76.0605 395.366 76.4898 395.17C76.9285 394.974 77.5165 394.876 78.2538 394.876H80.6058V395.842H78.3098C77.6378 395.842 77.1852 395.954 76.9518 396.178C76.7185 396.402 76.6018 396.673 76.6018 396.99C76.6018 397.354 76.7465 397.648 77.0358 397.872C77.3252 398.087 77.7265 398.194 78.2398 398.194C78.7438 398.194 79.1825 398.082 79.5558 397.858C79.9385 397.634 80.2138 397.308 80.3818 396.878L80.6478 397.802C80.4705 398.241 80.1578 398.591 79.7098 398.852C79.2618 399.104 78.6972 399.23 78.0158 399.23ZM84.146 399.146V391.726H85.49V398.32L85.168 397.97H89.074L88.766 398.32V391.726H90.11V398.32L89.774 397.97H93.694L93.372 398.32V391.726H94.716V399.146H84.146ZM97.3257 399.146V391.726H98.6697V397.13L103.22 391.726H104.438V399.146H103.094V393.742L98.5577 399.146H97.3257ZM105.87 399.146L109.062 395.002L109.048 395.688L106.01 391.726H107.508L109.832 394.778H109.258L111.582 391.726H113.052L109.972 395.716L109.986 395.002L113.206 399.146H111.68L109.23 395.898L109.776 395.982L107.368 399.146H105.87ZM61.8829 419.258C61.0803 419.258 60.3663 419.09 59.7409 418.754C59.1249 418.418 58.6349 417.961 58.2709 417.382C57.9163 416.794 57.7389 416.127 57.7389 415.38C57.7389 414.624 57.9163 413.957 58.2709 413.378C58.6349 412.79 59.1249 412.333 59.7409 412.006C60.3663 411.67 61.0803 411.502 61.8829 411.502C62.6763 411.502 63.3856 411.67 64.0109 412.006C64.6363 412.333 65.1263 412.786 65.4809 413.364C65.8356 413.943 66.0129 414.615 66.0129 415.38C66.0129 416.127 65.8356 416.794 65.4809 417.382C65.1263 417.961 64.6363 418.418 64.0109 418.754C63.3856 419.09 62.6763 419.258 61.8829 419.258ZM61.8829 417.466C62.2469 417.466 62.5736 417.382 62.8629 417.214C63.1523 417.046 63.3809 416.808 63.5489 416.5C63.7169 416.183 63.8009 415.81 63.8009 415.38C63.8009 414.942 63.7169 414.568 63.5489 414.26C63.3809 413.952 63.1523 413.714 62.8629 413.546C62.5736 413.378 62.2469 413.294 61.8829 413.294C61.5189 413.294 61.1923 413.378 60.9029 413.546C60.6136 413.714 60.3803 413.952 60.2029 414.26C60.0349 414.568 59.9509 414.942 59.9509 415.38C59.9509 415.81 60.0349 416.183 60.2029 416.5C60.3803 416.808 60.6136 417.046 60.9029 417.214C61.1923 417.382 61.5189 417.466 61.8829 417.466ZM68.8516 419.146V412.902L69.3416 413.406H66.3036V411.614H73.5696V413.406H70.5316L71.0216 412.902V419.146H68.8516ZM77.2818 419.286C76.7032 419.286 76.1245 419.226 75.5458 419.104C74.9765 418.983 74.4492 418.801 73.9638 418.558L74.5518 417.032C74.9345 417.219 75.3498 417.364 75.7978 417.466C76.2552 417.56 76.7172 417.606 77.1838 417.606C77.5198 417.606 77.8092 417.574 78.0518 417.508C78.3038 417.434 78.4952 417.331 78.6258 417.2C78.7565 417.07 78.8218 416.911 78.8218 416.724C78.8218 416.482 78.7192 416.3 78.5138 416.178C78.3085 416.048 78.0098 415.982 77.6178 415.982H75.8118V414.624H77.4358C77.6878 414.624 77.9025 414.596 78.0798 414.54C78.2572 414.484 78.3878 414.405 78.4718 414.302C78.5652 414.19 78.6118 414.06 78.6118 413.91C78.6118 413.752 78.5558 413.616 78.4438 413.504C78.3318 413.392 78.1685 413.308 77.9538 413.252C77.7392 413.187 77.4685 413.154 77.1418 413.154C76.7685 413.154 76.3812 413.201 75.9798 413.294C75.5785 413.378 75.1678 413.504 74.7478 413.672L74.2158 412.16C74.7105 411.955 75.2005 411.792 75.6858 411.67C76.1712 411.549 76.6518 411.484 77.1278 411.474C77.8278 411.456 78.4578 411.53 79.0178 411.698C79.5778 411.866 80.0165 412.109 80.3338 412.426C80.6605 412.744 80.8238 413.131 80.8238 413.588C80.8238 413.952 80.7118 414.279 80.4878 414.568C80.2732 414.858 79.9745 415.086 79.5918 415.254C79.2092 415.413 78.7798 415.492 78.3038 415.492L78.3598 415.058C79.1905 415.058 79.8438 415.226 80.3198 415.562C80.7958 415.889 81.0338 416.337 81.0338 416.906C81.0338 417.392 80.8658 417.816 80.5298 418.18C80.2032 418.535 79.7552 418.81 79.1858 419.006C78.6258 419.193 77.9912 419.286 77.2818 419.286ZM86.2632 419.16L82.5952 419.146V411.614H84.7652V414.022H86.5572C87.5465 414.032 88.2885 414.256 88.7832 414.694C89.2872 415.124 89.5392 415.735 89.5392 416.528C89.5392 417.359 89.2545 418.008 88.6852 418.474C88.1158 418.932 87.3085 419.16 86.2632 419.16ZM86.0672 417.606C86.4872 417.616 86.8092 417.527 87.0332 417.34C87.2572 417.154 87.3692 416.874 87.3692 416.5C87.3692 416.127 87.2572 415.861 87.0332 415.702C86.8092 415.534 86.4872 415.446 86.0672 415.436L84.7652 415.422V417.606H86.0672ZM90.3512 419.146V411.614H92.5212V419.146H90.3512ZM94.6264 419.146V411.614H98.4764C99.4191 411.614 100.156 411.787 100.688 412.132C101.22 412.468 101.486 412.944 101.486 413.56C101.486 414.176 101.234 414.662 100.73 415.016C100.236 415.362 99.5777 415.534 98.7564 415.534L98.9804 415.03C99.8951 415.03 100.576 415.198 101.024 415.534C101.482 415.87 101.71 416.36 101.71 417.004C101.71 417.667 101.458 418.19 100.954 418.572C100.45 418.955 99.6804 419.146 98.6444 419.146H94.6264ZM96.6284 417.662H98.4624C98.8637 417.662 99.1624 417.597 99.3584 417.466C99.5637 417.326 99.6664 417.116 99.6664 416.836C99.6664 416.547 99.5731 416.337 99.3864 416.206C99.1997 416.066 98.9057 415.996 98.5044 415.996H96.6284V417.662ZM96.6284 414.708H98.2804C98.6631 414.708 98.9477 414.638 99.1344 414.498C99.3304 414.358 99.4284 414.158 99.4284 413.896C99.4284 413.626 99.3304 413.425 99.1344 413.294C98.9477 413.164 98.6631 413.098 98.2804 413.098H96.6284V414.708ZM106.863 419.258C106.061 419.258 105.347 419.09 104.721 418.754C104.105 418.418 103.615 417.961 103.251 417.382C102.897 416.794 102.719 416.127 102.719 415.38C102.719 414.624 102.897 413.957 103.251 413.378C103.615 412.79 104.105 412.333 104.721 412.006C105.347 411.67 106.061 411.502 106.863 411.502C107.657 411.502 108.366 411.67 108.991 412.006C109.617 412.333 110.107 412.786 110.461 413.364C110.816 413.943 110.993 414.615 110.993 415.38C110.993 416.127 110.816 416.794 110.461 417.382C110.107 417.961 109.617 418.418 108.991 418.754C108.366 419.09 107.657 419.258 106.863 419.258ZM106.863 417.466C107.227 417.466 107.554 417.382 107.843 417.214C108.133 417.046 108.361 416.808 108.529 416.5C108.697 416.183 108.781 415.81 108.781 415.38C108.781 414.942 108.697 414.568 108.529 414.26C108.361 413.952 108.133 413.714 107.843 413.546C107.554 413.378 107.227 413.294 106.863 413.294C106.499 413.294 106.173 413.378 105.883 413.546C105.594 413.714 105.361 413.952 105.183 414.26C105.015 414.568 104.931 414.942 104.931 415.38C104.931 415.81 105.015 416.183 105.183 416.5C105.361 416.808 105.594 417.046 105.883 417.214C106.173 417.382 106.499 417.466 106.863 417.466ZM112.496 419.146V411.614H116.346C117.288 411.614 118.026 411.787 118.558 412.132C119.09 412.468 119.356 412.944 119.356 413.56C119.356 414.176 119.104 414.662 118.6 415.016C118.105 415.362 117.447 415.534 116.626 415.534L116.85 415.03C117.764 415.03 118.446 415.198 118.894 415.534C119.351 415.87 119.58 416.36 119.58 417.004C119.58 417.667 119.328 418.19 118.824 418.572C118.32 418.955 117.55 419.146 116.514 419.146H112.496ZM114.498 417.662H116.332C116.733 417.662 117.032 417.597 117.228 417.466C117.433 417.326 117.536 417.116 117.536 416.836C117.536 416.547 117.442 416.337 117.256 416.206C117.069 416.066 116.775 415.996 116.374 415.996H114.498V417.662ZM114.498 414.708H116.15C116.532 414.708 116.817 414.638 117.004 414.498C117.2 414.358 117.298 414.158 117.298 413.896C117.298 413.626 117.2 413.425 117.004 413.294C116.817 413.164 116.532 413.098 116.15 413.098H114.498V414.708Z" fill="#333333"/>
</svg>
