<svg width="544" height="178" viewBox="0 0 544 178" fill="none" xmlns="http://www.w3.org/2000/svg">
<path d="M9.42844 146L5.36444 140.48L6.66044 139.68L11.2524 146H9.42844ZM1.89244 146V134.8H3.46044V146H1.89244ZM2.98044 141.072V139.664H6.61244V141.072H2.98044ZM6.80444 140.576L5.33244 140.352L9.34844 134.8H11.0604L6.80444 140.576ZM17.9458 146V144.208L17.8658 143.872V140.816C17.8658 140.165 17.6738 139.664 17.2898 139.312C16.9165 138.949 16.3511 138.768 15.5938 138.768C15.0925 138.768 14.6018 138.853 14.1218 139.024C13.6418 139.184 13.2365 139.403 12.9058 139.68L12.2658 138.528C12.7031 138.176 13.2258 137.909 13.8338 137.728C14.4525 137.536 15.0978 137.44 15.7698 137.44C16.9325 137.44 17.8285 137.723 18.4578 138.288C19.0871 138.853 19.4018 139.717 19.4018 140.88V146H17.9458ZM15.1618 146.096C14.5325 146.096 13.9778 145.989 13.4978 145.776C13.0285 145.563 12.6658 145.269 12.4098 144.896C12.1538 144.512 12.0258 144.08 12.0258 143.6C12.0258 143.141 12.1325 142.725 12.3458 142.352C12.5698 141.979 12.9271 141.68 13.4178 141.456C13.9191 141.232 14.5911 141.12 15.4338 141.12H18.1218V142.224H15.4978C14.7298 142.224 14.2125 142.352 13.9458 142.608C13.6791 142.864 13.5458 143.173 13.5458 143.536C13.5458 143.952 13.7111 144.288 14.0418 144.544C14.3725 144.789 14.8311 144.912 15.4178 144.912C15.9938 144.912 16.4951 144.784 16.9218 144.528C17.3591 144.272 17.6738 143.899 17.8658 143.408L18.1698 144.464C17.9671 144.965 17.6098 145.365 17.0978 145.664C16.5858 145.952 15.9405 146.096 15.1618 146.096ZM32.2317 146L29.5277 141.872L30.7917 141.104L34.0557 146H32.2317ZM20.8877 146L24.1357 141.104L25.3997 141.872L22.7117 146H20.8877ZM24.0077 141.936L21.1117 137.52H22.7437L25.4477 141.744L24.0077 141.936ZM24.4237 142.416V141.104H27.1597V142.416H24.4237ZM26.6957 146V137.52H28.2317V146H26.6957ZM27.7677 142.416V141.104H30.5197V142.416H27.7677ZM30.9357 141.936L29.4797 141.744L32.1837 137.52H33.8317L30.9357 141.936ZM36.2418 144.928L34.7218 144.656C35.0525 144.667 35.3191 144.56 35.5218 144.336C35.7245 144.101 35.8791 143.781 35.9858 143.376C36.1031 142.971 36.1885 142.512 36.2418 142C36.2951 141.477 36.3378 140.939 36.3698 140.384L36.4978 137.52H43.0738V145.28H41.5378V138.864H37.8578L37.7778 140.496C37.7565 141.029 37.7191 141.547 37.6658 142.048C37.6231 142.539 37.5485 142.992 37.4418 143.408C37.3458 143.824 37.2018 144.165 37.0098 144.432C36.8178 144.699 36.5618 144.864 36.2418 144.928ZM34.3858 147.968V144.656H44.3698V147.968H42.9298V146H35.8418V147.968H34.3858ZM49.9388 146.016L46.3708 146V137.52H47.9068V140.384L50.1948 140.4C51.2721 140.411 52.0881 140.656 52.6428 141.136C53.2081 141.616 53.4908 142.293 53.4908 143.168C53.4908 144.085 53.1815 144.795 52.5628 145.296C51.9548 145.787 51.0801 146.027 49.9388 146.016ZM49.8268 144.848C50.5095 144.859 51.0321 144.72 51.3948 144.432C51.7575 144.144 51.9388 143.717 51.9388 143.152C51.9388 142.597 51.7575 142.192 51.3948 141.936C51.0428 141.68 50.5201 141.547 49.8268 141.536L47.9068 141.504V144.832L49.8268 144.848ZM54.7548 146V137.52H56.2908V146H54.7548ZM59.2771 146V137.52H60.8131V143.696L66.0131 137.52H67.4051V146H65.8691V139.824L60.6851 146H59.2771ZM63.2451 136.416C62.4664 136.416 61.8531 136.229 61.4051 135.856C60.9677 135.472 60.7437 134.923 60.7331 134.208H61.7731C61.7837 134.613 61.9171 134.933 62.1731 135.168C62.4397 135.403 62.7917 135.52 63.2291 135.52C63.6664 135.52 64.0184 135.403 64.2851 135.168C64.5517 134.933 64.6904 134.613 64.7011 134.208H65.7731C65.7624 134.923 65.5331 135.472 65.0851 135.856C64.6371 136.229 64.0237 136.416 63.2451 136.416ZM77.1633 146.112C76.5233 146.112 75.894 146.032 75.2753 145.872C74.6673 145.701 74.1233 145.461 73.6433 145.152L74.1073 143.984C74.5126 144.24 74.9766 144.443 75.4993 144.592C76.022 144.731 76.55 144.8 77.0833 144.8C77.574 144.8 77.9953 144.741 78.3473 144.624C78.71 144.507 78.9873 144.347 79.1793 144.144C79.3713 143.931 79.4673 143.685 79.4673 143.408C79.4673 143.013 79.2913 142.709 78.9393 142.496C78.5873 142.283 78.0966 142.176 77.4673 142.176H75.6433V141.072H77.3713C77.7446 141.072 78.07 141.029 78.3473 140.944C78.6246 140.859 78.838 140.731 78.9873 140.56C79.1473 140.379 79.2273 140.171 79.2273 139.936C79.2273 139.68 79.1366 139.461 78.9553 139.28C78.774 139.099 78.518 138.96 78.1873 138.864C77.8673 138.768 77.4886 138.72 77.0513 138.72C76.6246 138.731 76.1873 138.789 75.7393 138.896C75.302 139.003 74.854 139.168 74.3953 139.392L73.9793 138.192C74.4913 137.947 74.9926 137.76 75.4833 137.632C75.9846 137.493 76.4806 137.419 76.9713 137.408C77.7073 137.387 78.3633 137.472 78.9393 137.664C79.5153 137.845 79.9686 138.112 80.2993 138.464C80.6406 138.816 80.8113 139.232 80.8113 139.712C80.8113 140.117 80.6833 140.48 80.4273 140.8C80.1713 141.109 79.83 141.355 79.4033 141.536C78.9766 141.717 78.486 141.808 77.9313 141.808L77.9953 141.44C78.9446 141.44 79.6913 141.627 80.2353 142C80.7793 142.373 81.0513 142.88 81.0513 143.52C81.0513 144.032 80.8806 144.485 80.5393 144.88C80.198 145.264 79.734 145.568 79.1473 145.792C78.5713 146.005 77.91 146.112 77.1633 146.112ZM88.5864 146V144.208L88.5064 143.872V140.816C88.5064 140.165 88.3144 139.664 87.9304 139.312C87.5571 138.949 86.9918 138.768 86.2344 138.768C85.7331 138.768 85.2424 138.853 84.7624 139.024C84.2824 139.184 83.8771 139.403 83.5464 139.68L82.9064 138.528C83.3438 138.176 83.8664 137.909 84.4744 137.728C85.0931 137.536 85.7384 137.44 86.4104 137.44C87.5731 137.44 88.4691 137.723 89.0984 138.288C89.7278 138.853 90.0424 139.717 90.0424 140.88V146H88.5864ZM85.8024 146.096C85.1731 146.096 84.6184 145.989 84.1384 145.776C83.6691 145.563 83.3064 145.269 83.0504 144.896C82.7944 144.512 82.6664 144.08 82.6664 143.6C82.6664 143.141 82.7731 142.725 82.9864 142.352C83.2104 141.979 83.5678 141.68 84.0584 141.456C84.5598 141.232 85.2318 141.12 86.0744 141.12H88.7624V142.224H86.1384C85.3704 142.224 84.8531 142.352 84.5864 142.608C84.3198 142.864 84.1864 143.173 84.1864 143.536C84.1864 143.952 84.3518 144.288 84.6824 144.544C85.0131 144.789 85.4718 144.912 86.0584 144.912C86.6344 144.912 87.1358 144.784 87.5624 144.528C87.9998 144.272 88.3144 143.899 88.5064 143.408L88.8104 144.464C88.6078 144.965 88.2504 145.365 87.7384 145.664C87.2264 145.952 86.5811 146.096 85.8024 146.096ZM98.9523 146L95.6723 141.872L96.9363 141.104L100.76 146H98.9523ZM92.8083 146V137.52H94.3443V146H92.8083ZM93.8803 142.416V141.104H96.6803V142.416H93.8803ZM97.0643 141.936L95.6403 141.744L98.8883 137.52H100.536L97.0643 141.936ZM107.415 146V144.208L107.335 143.872V140.816C107.335 140.165 107.143 139.664 106.759 139.312C106.385 138.949 105.82 138.768 105.063 138.768C104.561 138.768 104.071 138.853 103.591 139.024C103.111 139.184 102.705 139.403 102.375 139.68L101.735 138.528C102.172 138.176 102.695 137.909 103.303 137.728C103.921 137.536 104.567 137.44 105.239 137.44C106.401 137.44 107.297 137.723 107.927 138.288C108.556 138.853 108.871 139.717 108.871 140.88V146H107.415ZM104.631 146.096C104.001 146.096 103.447 145.989 102.967 145.776C102.497 145.563 102.135 145.269 101.879 144.896C101.623 144.512 101.495 144.08 101.495 143.6C101.495 143.141 101.601 142.725 101.815 142.352C102.039 141.979 102.396 141.68 102.887 141.456C103.388 141.232 104.06 141.12 104.903 141.12H107.591V142.224H104.967C104.199 142.224 103.681 142.352 103.415 142.608C103.148 142.864 103.015 143.173 103.015 143.536C103.015 143.952 103.18 144.288 103.511 144.544C103.841 144.789 104.3 144.912 104.887 144.912C105.463 144.912 105.964 144.784 106.391 144.528C106.828 144.272 107.143 143.899 107.335 143.408L107.639 144.464C107.436 144.965 107.079 145.365 106.567 145.664C106.055 145.952 105.409 146.096 104.631 146.096ZM114.116 146.112C113.476 146.112 112.847 146.032 112.228 145.872C111.62 145.701 111.076 145.461 110.596 145.152L111.06 143.984C111.466 144.24 111.93 144.443 112.452 144.592C112.975 144.731 113.503 144.8 114.036 144.8C114.527 144.8 114.948 144.741 115.3 144.624C115.663 144.507 115.94 144.347 116.132 144.144C116.324 143.931 116.42 143.685 116.42 143.408C116.42 143.013 116.244 142.709 115.892 142.496C115.54 142.283 115.05 142.176 114.42 142.176H112.596V141.072H114.324C114.698 141.072 115.023 141.029 115.3 140.944C115.578 140.859 115.791 140.731 115.94 140.56C116.1 140.379 116.18 140.171 116.18 139.936C116.18 139.68 116.09 139.461 115.908 139.28C115.727 139.099 115.471 138.96 115.14 138.864C114.82 138.768 114.442 138.72 114.004 138.72C113.578 138.731 113.14 138.789 112.692 138.896C112.255 139.003 111.807 139.168 111.348 139.392L110.932 138.192C111.444 137.947 111.946 137.76 112.436 137.632C112.938 137.493 113.434 137.419 113.924 137.408C114.66 137.387 115.316 137.472 115.892 137.664C116.468 137.845 116.922 138.112 117.252 138.464C117.594 138.816 117.764 139.232 117.764 139.712C117.764 140.117 117.636 140.48 117.38 140.8C117.124 141.109 116.783 141.355 116.356 141.536C115.93 141.717 115.439 141.808 114.884 141.808L114.948 141.44C115.898 141.44 116.644 141.627 117.188 142C117.732 142.373 118.004 142.88 118.004 143.52C118.004 144.032 117.834 144.485 117.492 144.88C117.151 145.264 116.687 145.568 116.1 145.792C115.524 146.005 114.863 146.112 114.116 146.112ZM16.8797 171V162.392H21.2797C22.357 162.392 23.1997 162.589 23.8077 162.984C24.4157 163.368 24.7197 163.912 24.7197 164.616C24.7197 165.32 24.4317 165.875 23.8557 166.28C23.2904 166.675 22.5384 166.872 21.5997 166.872L21.8557 166.296C22.901 166.296 23.6797 166.488 24.1917 166.872C24.7144 167.256 24.9757 167.816 24.9757 168.552C24.9757 169.309 24.6877 169.907 24.1117 170.344C23.5357 170.781 22.6557 171 21.4717 171H16.8797ZM19.1677 169.304H21.2637C21.7224 169.304 22.0637 169.229 22.2877 169.08C22.5224 168.92 22.6397 168.68 22.6397 168.36C22.6397 168.029 22.533 167.789 22.3197 167.64C22.1064 167.48 21.7704 167.4 21.3117 167.4H19.1677V169.304ZM19.1677 165.928H21.0557C21.493 165.928 21.8184 165.848 22.0317 165.688C22.2557 165.528 22.3677 165.299 22.3677 165C22.3677 164.691 22.2557 164.461 22.0317 164.312C21.8184 164.163 21.493 164.088 21.0557 164.088H19.1677V165.928ZM37.4601 171L34.5801 166.92L36.6121 165.72L40.4041 171H37.4601ZM31.3641 171V162.392H33.8601V171H31.3641ZM33.1241 167.736V165.736H36.1321V167.736H33.1241ZM36.8521 166.984L34.5161 166.728L37.5401 162.392H40.1961L36.8521 166.984ZM45.4273 171.128C44.51 171.128 43.694 170.936 42.9793 170.552C42.2753 170.168 41.7153 169.645 41.2993 168.984C40.894 168.312 40.6913 167.549 40.6913 166.696C40.6913 165.832 40.894 165.069 41.2993 164.408C41.7153 163.736 42.2753 163.213 42.9793 162.84C43.694 162.456 44.51 162.264 45.4273 162.264C46.334 162.264 47.1446 162.456 47.8593 162.84C48.574 163.213 49.134 163.731 49.5393 164.392C49.9446 165.053 50.1473 165.821 50.1473 166.696C50.1473 167.549 49.9446 168.312 49.5393 168.984C49.134 169.645 48.574 170.168 47.8593 170.552C47.1446 170.936 46.334 171.128 45.4273 171.128ZM45.4273 169.08C45.8433 169.08 46.2166 168.984 46.5473 168.792C46.878 168.6 47.1393 168.328 47.3313 167.976C47.5233 167.613 47.6193 167.187 47.6193 166.696C47.6193 166.195 47.5233 165.768 47.3313 165.416C47.1393 165.064 46.878 164.792 46.5473 164.6C46.2166 164.408 45.8433 164.312 45.4273 164.312C45.0113 164.312 44.638 164.408 44.3073 164.6C43.9766 164.792 43.71 165.064 43.5073 165.416C43.3153 165.768 43.2193 166.195 43.2193 166.696C43.2193 167.187 43.3153 167.613 43.5073 167.976C43.71 168.328 43.9766 168.6 44.3073 168.792C44.638 168.984 45.0113 169.08 45.4273 169.08ZM56.9361 171.128C56.2107 171.128 55.5761 170.968 55.0321 170.648C54.4881 170.328 54.0614 169.843 53.7521 169.192C53.4534 168.531 53.3041 167.699 53.3041 166.696C53.3041 165.683 53.4481 164.851 53.7361 164.2C54.0241 163.549 54.4401 163.064 54.9841 162.744C55.5281 162.424 56.1787 162.264 56.9361 162.264C57.7467 162.264 58.4721 162.451 59.1121 162.824C59.7627 163.187 60.2747 163.699 60.6481 164.36C61.0321 165.021 61.2241 165.8 61.2241 166.696C61.2241 167.603 61.0321 168.387 60.6481 169.048C60.2747 169.709 59.7627 170.221 59.1121 170.584C58.4721 170.947 57.7467 171.128 56.9361 171.128ZM51.8481 174.104V162.392H54.2321V164.152L54.1841 166.712L54.3441 169.256V174.104H51.8481ZM56.5041 169.08C56.9201 169.08 57.2881 168.984 57.6081 168.792C57.9387 168.6 58.2001 168.328 58.3921 167.976C58.5947 167.613 58.6961 167.187 58.6961 166.696C58.6961 166.195 58.5947 165.768 58.3921 165.416C58.2001 165.064 57.9387 164.792 57.6081 164.6C57.2881 164.408 56.9201 164.312 56.5041 164.312C56.0881 164.312 55.7147 164.408 55.3841 164.6C55.0534 164.792 54.7921 165.064 54.6001 165.416C54.4081 165.768 54.3121 166.195 54.3121 166.696C54.3121 167.187 54.4081 167.613 54.6001 167.976C54.7921 168.328 55.0534 168.6 55.3841 168.792C55.7147 168.984 56.0881 169.08 56.5041 169.08ZM67.0054 171.128C66.0881 171.128 65.2721 170.936 64.5574 170.552C63.8534 170.168 63.2934 169.645 62.8774 168.984C62.4721 168.312 62.2694 167.549 62.2694 166.696C62.2694 165.832 62.4721 165.069 62.8774 164.408C63.2934 163.736 63.8534 163.213 64.5574 162.84C65.2721 162.456 66.0881 162.264 67.0054 162.264C67.9121 162.264 68.7228 162.456 69.4374 162.84C70.1521 163.213 70.7121 163.731 71.1174 164.392C71.5228 165.053 71.7254 165.821 71.7254 166.696C71.7254 167.549 71.5228 168.312 71.1174 168.984C70.7121 169.645 70.1521 170.168 69.4374 170.552C68.7228 170.936 67.9121 171.128 67.0054 171.128ZM67.0054 169.08C67.4214 169.08 67.7948 168.984 68.1254 168.792C68.4561 168.6 68.7174 168.328 68.9094 167.976C69.1014 167.613 69.1974 167.187 69.1974 166.696C69.1974 166.195 69.1014 165.768 68.9094 165.416C68.7174 165.064 68.4561 164.792 68.1254 164.6C67.7948 164.408 67.4214 164.312 67.0054 164.312C66.5894 164.312 66.2161 164.408 65.8854 164.6C65.5548 164.792 65.2881 165.064 65.0854 165.416C64.8934 165.768 64.7974 166.195 64.7974 166.696C64.7974 167.187 64.8934 167.613 65.0854 167.976C65.2881 168.328 65.5548 168.6 65.8854 168.792C66.2161 168.984 66.5894 169.08 67.0054 169.08ZM77.7142 171.192C77.0102 171.192 76.3702 171.091 75.7942 170.888C75.2182 170.675 74.7169 170.349 74.2902 169.912C73.8742 169.464 73.5489 168.893 73.3142 168.2C73.0902 167.507 72.9782 166.68 72.9782 165.72C72.9782 165.037 73.0369 164.413 73.1542 163.848C73.2715 163.283 73.4475 162.771 73.6822 162.312C73.9169 161.843 74.2155 161.432 74.5782 161.08C74.9515 160.717 75.3835 160.419 75.8742 160.184C76.3755 159.939 76.9409 159.752 77.5702 159.624L81.6662 158.808L82.0022 160.952L78.3862 161.672C78.1729 161.715 77.9275 161.773 77.6502 161.848C77.3835 161.912 77.1115 162.013 76.8342 162.152C76.5675 162.291 76.3169 162.488 76.0822 162.744C75.8582 162.989 75.6769 163.315 75.5382 163.72C75.3995 164.115 75.3302 164.605 75.3302 165.192C75.3302 165.373 75.3355 165.512 75.3462 165.608C75.3675 165.704 75.3835 165.805 75.3942 165.912C75.4155 166.019 75.4262 166.184 75.4262 166.408L74.6262 165.624C74.8609 165.123 75.1595 164.696 75.5222 164.344C75.8955 163.992 76.3222 163.725 76.8022 163.544C77.2929 163.352 77.8369 163.256 78.4342 163.256C79.2449 163.256 79.9542 163.421 80.5622 163.752C81.1809 164.072 81.6609 164.525 82.0022 165.112C82.3435 165.699 82.5142 166.365 82.5142 167.112C82.5142 167.923 82.3115 168.637 81.9062 169.256C81.5009 169.864 80.9355 170.339 80.2102 170.68C79.4955 171.021 78.6635 171.192 77.7142 171.192ZM77.8422 169.256C78.2582 169.256 78.6262 169.165 78.9462 168.984C79.2662 168.792 79.5115 168.541 79.6822 168.232C79.8635 167.912 79.9542 167.555 79.9542 167.16C79.9542 166.776 79.8635 166.435 79.6822 166.136C79.5115 165.837 79.2662 165.603 78.9462 165.432C78.6262 165.261 78.2529 165.176 77.8262 165.176C77.4102 165.176 77.0369 165.261 76.7062 165.432C76.3755 165.592 76.1195 165.816 75.9382 166.104C75.7569 166.392 75.6662 166.728 75.6662 167.112C75.6662 167.507 75.7569 167.869 75.9382 168.2C76.1302 168.52 76.3862 168.776 76.7062 168.968C77.0369 169.16 77.4155 169.256 77.8422 169.256ZM90.3038 171L87.4238 166.92L89.4558 165.72L93.2478 171H90.3038ZM84.2078 171V162.392H86.7038V171H84.2078ZM85.9678 167.736V165.736H88.9758V167.736H85.9678ZM89.6958 166.984L87.3598 166.728L90.3838 162.392H93.0398L89.6958 166.984ZM98.4471 171.128C97.4657 171.128 96.6017 170.936 95.8551 170.552C95.1191 170.168 94.5484 169.645 94.1431 168.984C93.7377 168.312 93.5351 167.549 93.5351 166.696C93.5351 165.832 93.7324 165.069 94.1271 164.408C94.5324 163.736 95.0817 163.213 95.7751 162.84C96.4684 162.456 97.2524 162.264 98.1271 162.264C98.9697 162.264 99.7271 162.445 100.399 162.808C101.082 163.16 101.62 163.672 102.015 164.344C102.41 165.005 102.607 165.8 102.607 166.728C102.607 166.824 102.602 166.936 102.591 167.064C102.58 167.181 102.57 167.293 102.559 167.4H95.5671V165.944H101.247L100.287 166.376C100.287 165.928 100.196 165.539 100.015 165.208C99.8337 164.877 99.5831 164.621 99.2631 164.44C98.9431 164.248 98.5697 164.152 98.1431 164.152C97.7164 164.152 97.3377 164.248 97.0071 164.44C96.6871 164.621 96.4364 164.883 96.2551 165.224C96.0737 165.555 95.9831 165.949 95.9831 166.408V166.792C95.9831 167.261 96.0844 167.677 96.2871 168.04C96.5004 168.392 96.7937 168.664 97.1671 168.856C97.5511 169.037 97.9991 169.128 98.5111 169.128C98.9697 169.128 99.3697 169.059 99.7111 168.92C100.063 168.781 100.383 168.573 100.671 168.296L101.999 169.736C101.604 170.184 101.108 170.531 100.511 170.776C99.9137 171.011 99.2257 171.128 98.4471 171.128Z" fill="#333333"/>
<path d="M207.986 146V134.8H212.802C214.018 134.8 214.973 135.045 215.666 135.536C216.36 136.027 216.706 136.741 216.706 137.68C216.706 138.597 216.376 139.301 215.714 139.792C215.053 140.272 214.184 140.512 213.106 140.512L213.394 140.032C214.642 140.032 215.597 140.283 216.258 140.784C216.93 141.275 217.266 141.995 217.266 142.944C217.266 143.904 216.914 144.656 216.21 145.2C215.517 145.733 214.482 146 213.106 146H207.986ZM209.57 144.736H213.074C213.928 144.736 214.568 144.581 214.994 144.272C215.432 143.952 215.65 143.467 215.65 142.816C215.65 142.165 215.432 141.691 214.994 141.392C214.568 141.093 213.928 140.944 213.074 140.944H209.57V144.736ZM209.57 139.728H212.69C213.469 139.728 214.061 139.573 214.466 139.264C214.882 138.955 215.09 138.501 215.09 137.904C215.09 137.296 214.882 136.837 214.466 136.528C214.061 136.219 213.469 136.064 212.69 136.064H209.57V139.728ZM223.315 146.096C222.462 146.096 221.705 145.909 221.043 145.536C220.382 145.163 219.859 144.651 219.475 144C219.091 143.339 218.899 142.592 218.899 141.76C218.899 140.917 219.091 140.171 219.475 139.52C219.859 138.869 220.382 138.363 221.043 138C221.705 137.627 222.462 137.44 223.315 137.44C224.158 137.44 224.91 137.627 225.571 138C226.243 138.363 226.766 138.869 227.139 139.52C227.523 140.16 227.715 140.907 227.715 141.76C227.715 142.603 227.523 143.349 227.139 144C226.766 144.651 226.243 145.163 225.571 145.536C224.91 145.909 224.158 146.096 223.315 146.096ZM223.315 144.752C223.859 144.752 224.345 144.629 224.771 144.384C225.209 144.139 225.55 143.792 225.795 143.344C226.041 142.885 226.163 142.357 226.163 141.76C226.163 141.152 226.041 140.629 225.795 140.192C225.55 139.744 225.209 139.397 224.771 139.152C224.345 138.907 223.859 138.784 223.315 138.784C222.771 138.784 222.286 138.907 221.859 139.152C221.433 139.397 221.091 139.744 220.835 140.192C220.579 140.629 220.451 141.152 220.451 141.76C220.451 142.357 220.579 142.885 220.835 143.344C221.091 143.792 221.433 144.139 221.859 144.384C222.286 144.629 222.771 144.752 223.315 144.752ZM232.413 146.112C231.773 146.112 231.144 146.032 230.525 145.872C229.917 145.701 229.373 145.461 228.893 145.152L229.357 143.984C229.763 144.24 230.227 144.443 230.749 144.592C231.272 144.731 231.8 144.8 232.333 144.8C232.824 144.8 233.245 144.741 233.597 144.624C233.96 144.507 234.237 144.347 234.429 144.144C234.621 143.931 234.717 143.685 234.717 143.408C234.717 143.013 234.541 142.709 234.189 142.496C233.837 142.283 233.347 142.176 232.717 142.176H230.893V141.072H232.621C232.995 141.072 233.32 141.029 233.597 140.944C233.875 140.859 234.088 140.731 234.237 140.56C234.397 140.379 234.477 140.171 234.477 139.936C234.477 139.68 234.387 139.461 234.205 139.28C234.024 139.099 233.768 138.96 233.437 138.864C233.117 138.768 232.739 138.72 232.301 138.72C231.875 138.731 231.437 138.789 230.989 138.896C230.552 139.003 230.104 139.168 229.645 139.392L229.229 138.192C229.741 137.947 230.243 137.76 230.733 137.632C231.235 137.493 231.731 137.419 232.221 137.408C232.957 137.387 233.613 137.472 234.189 137.664C234.765 137.845 235.219 138.112 235.549 138.464C235.891 138.816 236.061 139.232 236.061 139.712C236.061 140.117 235.933 140.48 235.677 140.8C235.421 141.109 235.08 141.355 234.653 141.536C234.227 141.717 233.736 141.808 233.181 141.808L233.245 141.44C234.195 141.44 234.941 141.627 235.485 142C236.029 142.373 236.301 142.88 236.301 143.52C236.301 144.032 236.131 144.485 235.789 144.88C235.448 145.264 234.984 145.568 234.397 145.792C233.821 146.005 233.16 146.112 232.413 146.112ZM238.636 146V137.52H240.22L243.868 143.792H243.228L246.972 137.52H248.412V146H247.02V139.248L247.276 139.392L243.852 145.04H243.18L239.74 139.28L240.044 139.216V146H238.636ZM255.034 146.096C254.181 146.096 253.423 145.909 252.762 145.536C252.101 145.163 251.578 144.651 251.194 144C250.81 143.339 250.618 142.592 250.618 141.76C250.618 140.917 250.81 140.171 251.194 139.52C251.578 138.869 252.101 138.363 252.762 138C253.423 137.627 254.181 137.44 255.034 137.44C255.877 137.44 256.629 137.627 257.29 138C257.962 138.363 258.485 138.869 258.858 139.52C259.242 140.16 259.434 140.907 259.434 141.76C259.434 142.603 259.242 143.349 258.858 144C258.485 144.651 257.962 145.163 257.29 145.536C256.629 145.909 255.877 146.096 255.034 146.096ZM255.034 144.752C255.578 144.752 256.063 144.629 256.49 144.384C256.927 144.139 257.269 143.792 257.514 143.344C257.759 142.885 257.882 142.357 257.882 141.76C257.882 141.152 257.759 140.629 257.514 140.192C257.269 139.744 256.927 139.397 256.49 139.152C256.063 138.907 255.578 138.784 255.034 138.784C254.49 138.784 254.005 138.907 253.578 139.152C253.151 139.397 252.81 139.744 252.554 140.192C252.298 140.629 252.17 141.152 252.17 141.76C252.17 142.357 252.298 142.885 252.554 143.344C252.81 143.792 253.151 144.139 253.578 144.384C254.005 144.629 254.49 144.752 255.034 144.752ZM271.466 146L268.762 141.872L270.026 141.104L273.29 146H271.466ZM260.122 146L263.37 141.104L264.634 141.872L261.946 146H260.122ZM263.242 141.936L260.346 137.52H261.978L264.682 141.744L263.242 141.936ZM263.658 142.416V141.104H266.394V142.416H263.658ZM265.93 146V137.52H267.466V146H265.93ZM267.002 142.416V141.104H269.754V142.416H267.002ZM270.17 141.936L268.714 141.744L271.418 137.52H273.066L270.17 141.936ZM274.98 146V137.52H276.516V141.12H281.348V137.52H282.884V146H281.348V142.448H276.516V146H274.98ZM289.503 146.096C288.649 146.096 287.892 145.909 287.231 145.536C286.569 145.163 286.047 144.651 285.663 144C285.279 143.339 285.087 142.592 285.087 141.76C285.087 140.917 285.279 140.171 285.663 139.52C286.047 138.869 286.569 138.363 287.231 138C287.892 137.627 288.649 137.44 289.503 137.44C290.345 137.44 291.097 137.627 291.759 138C292.431 138.363 292.953 138.869 293.327 139.52C293.711 140.16 293.903 140.907 293.903 141.76C293.903 142.603 293.711 143.349 293.327 144C292.953 144.651 292.431 145.163 291.759 145.536C291.097 145.909 290.345 146.096 289.503 146.096ZM289.503 144.752C290.047 144.752 290.532 144.629 290.959 144.384C291.396 144.139 291.737 143.792 291.983 143.344C292.228 142.885 292.351 142.357 292.351 141.76C292.351 141.152 292.228 140.629 291.983 140.192C291.737 139.744 291.396 139.397 290.959 139.152C290.532 138.907 290.047 138.784 289.503 138.784C288.959 138.784 288.473 138.907 288.047 139.152C287.62 139.397 287.279 139.744 287.023 140.192C286.767 140.629 286.639 141.152 286.639 141.76C286.639 142.357 286.767 142.885 287.023 143.344C287.279 143.792 287.62 144.139 288.047 144.384C288.473 144.629 288.959 144.752 289.503 144.752ZM299.817 146.096C298.953 146.096 298.179 145.909 297.497 145.536C296.825 145.163 296.297 144.651 295.913 144C295.529 143.349 295.337 142.603 295.337 141.76C295.337 140.917 295.529 140.171 295.913 139.52C296.297 138.869 296.825 138.363 297.497 138C298.179 137.627 298.953 137.44 299.817 137.44C300.585 137.44 301.267 137.595 301.865 137.904C302.473 138.203 302.942 138.651 303.273 139.248L302.105 140C301.827 139.584 301.486 139.28 301.081 139.088C300.686 138.885 300.259 138.784 299.801 138.784C299.246 138.784 298.75 138.907 298.313 139.152C297.875 139.397 297.529 139.744 297.273 140.192C297.017 140.629 296.889 141.152 296.889 141.76C296.889 142.368 297.017 142.896 297.273 143.344C297.529 143.792 297.875 144.139 298.313 144.384C298.75 144.629 299.246 144.752 299.801 144.752C300.259 144.752 300.686 144.656 301.081 144.464C301.486 144.261 301.827 143.952 302.105 143.536L303.273 144.272C302.942 144.859 302.473 145.312 301.865 145.632C301.267 145.941 300.585 146.096 299.817 146.096ZM306.832 146V138.464L307.216 138.864H303.728V137.52H311.472V138.864H308L308.368 138.464V146H306.832ZM316.723 146.016L313.043 146V137.52H314.579V140.384L316.963 140.4C318.04 140.411 318.861 140.656 319.427 141.136C319.992 141.616 320.275 142.293 320.275 143.168C320.275 144.085 319.965 144.795 319.347 145.296C318.728 145.787 317.853 146.027 316.723 146.016ZM316.595 144.848C317.288 144.859 317.811 144.72 318.163 144.432C318.525 144.144 318.707 143.717 318.707 143.152C318.707 142.597 318.531 142.192 318.179 141.936C317.827 141.68 317.299 141.547 316.595 141.536L314.579 141.504V144.832L316.595 144.848ZM184.198 171.16C183.377 171.16 182.63 171.027 181.958 170.76C181.297 170.483 180.747 170.088 180.31 169.576L181.734 168.232C182.054 168.552 182.406 168.803 182.79 168.984C183.185 169.155 183.622 169.24 184.102 169.24C184.625 169.24 185.078 169.133 185.462 168.92C185.857 168.707 186.166 168.408 186.39 168.024C186.614 167.64 186.726 167.197 186.726 166.696C186.726 166.184 186.614 165.736 186.39 165.352C186.166 164.968 185.857 164.669 185.462 164.456C185.078 164.243 184.625 164.136 184.102 164.136C183.622 164.136 183.185 164.227 182.79 164.408C182.406 164.579 182.054 164.829 181.734 165.16L180.31 163.832C180.747 163.309 181.297 162.915 181.958 162.648C182.63 162.371 183.377 162.232 184.198 162.232C185.137 162.232 185.969 162.424 186.694 162.808C187.419 163.181 187.99 163.704 188.406 164.376C188.822 165.048 189.03 165.821 189.03 166.696C189.03 167.56 188.822 168.333 188.406 169.016C187.99 169.688 187.419 170.216 186.694 170.6C185.969 170.973 185.137 171.16 184.198 171.16ZM182.998 167.512V165.8H187.494V167.512H182.998ZM196.819 171L193.939 166.92L195.971 165.72L199.763 171H196.819ZM190.723 171V162.392H193.219V171H190.723ZM192.483 167.736V165.736H195.491V167.736H192.483ZM196.211 166.984L193.875 166.728L196.899 162.392H199.555L196.211 166.984ZM204.851 171.128C203.923 171.128 203.096 170.941 202.371 170.568C201.645 170.184 201.075 169.656 200.659 168.984C200.253 168.312 200.051 167.549 200.051 166.696C200.051 165.832 200.253 165.069 200.659 164.408C201.075 163.736 201.645 163.213 202.371 162.84C203.096 162.456 203.923 162.264 204.851 162.264C205.757 162.264 206.547 162.456 207.219 162.84C207.891 163.213 208.387 163.752 208.707 164.456L206.771 165.496C206.547 165.091 206.264 164.792 205.923 164.6C205.592 164.408 205.229 164.312 204.835 164.312C204.408 164.312 204.024 164.408 203.683 164.6C203.341 164.792 203.069 165.064 202.867 165.416C202.675 165.768 202.579 166.195 202.579 166.696C202.579 167.197 202.675 167.624 202.867 167.976C203.069 168.328 203.341 168.6 203.683 168.792C204.024 168.984 204.408 169.08 204.835 169.08C205.229 169.08 205.592 168.989 205.923 168.808C206.264 168.616 206.547 168.312 206.771 167.896L208.707 168.952C208.387 169.645 207.891 170.184 207.219 170.568C206.547 170.941 205.757 171.128 204.851 171.128ZM210.223 171V162.392H218.783V171H216.287V163.88L216.847 164.44H212.143L212.703 163.88V171H210.223ZM226.249 171.128C225.523 171.128 224.889 170.968 224.345 170.648C223.801 170.328 223.374 169.843 223.065 169.192C222.766 168.531 222.617 167.699 222.617 166.696C222.617 165.683 222.761 164.851 223.049 164.2C223.337 163.549 223.753 163.064 224.297 162.744C224.841 162.424 225.491 162.264 226.249 162.264C227.059 162.264 227.785 162.451 228.425 162.824C229.075 163.187 229.587 163.699 229.961 164.36C230.345 165.021 230.537 165.8 230.537 166.696C230.537 167.603 230.345 168.387 229.961 169.048C229.587 169.709 229.075 170.221 228.425 170.584C227.785 170.947 227.059 171.128 226.249 171.128ZM221.161 174.104V162.392H223.545V164.152L223.497 166.712L223.657 169.256V174.104H221.161ZM225.817 169.08C226.233 169.08 226.601 168.984 226.921 168.792C227.251 168.6 227.513 168.328 227.705 167.976C227.907 167.613 228.009 167.187 228.009 166.696C228.009 166.195 227.907 165.768 227.705 165.416C227.513 165.064 227.251 164.792 226.921 164.6C226.601 164.408 226.233 164.312 225.817 164.312C225.401 164.312 225.027 164.408 224.697 164.6C224.366 164.792 224.105 165.064 223.913 165.416C223.721 165.768 223.625 166.195 223.625 166.696C223.625 167.187 223.721 167.613 223.913 167.976C224.105 168.328 224.366 168.6 224.697 168.792C225.027 168.984 225.401 169.08 225.817 169.08ZM236.494 171.128C235.513 171.128 234.649 170.936 233.902 170.552C233.166 170.168 232.595 169.645 232.19 168.984C231.785 168.312 231.582 167.549 231.582 166.696C231.582 165.832 231.779 165.069 232.174 164.408C232.579 163.736 233.129 163.213 233.822 162.84C234.515 162.456 235.299 162.264 236.174 162.264C237.017 162.264 237.774 162.445 238.446 162.808C239.129 163.16 239.667 163.672 240.062 164.344C240.457 165.005 240.654 165.8 240.654 166.728C240.654 166.824 240.649 166.936 240.638 167.064C240.627 167.181 240.617 167.293 240.606 167.4H233.614V165.944H239.294L238.334 166.376C238.334 165.928 238.243 165.539 238.062 165.208C237.881 164.877 237.63 164.621 237.31 164.44C236.99 164.248 236.617 164.152 236.19 164.152C235.763 164.152 235.385 164.248 235.054 164.44C234.734 164.621 234.483 164.883 234.302 165.224C234.121 165.555 234.03 165.949 234.03 166.408V166.792C234.03 167.261 234.131 167.677 234.334 168.04C234.547 168.392 234.841 168.664 235.214 168.856C235.598 169.037 236.046 169.128 236.558 169.128C237.017 169.128 237.417 169.059 237.758 168.92C238.11 168.781 238.43 168.573 238.718 168.296L240.046 169.736C239.651 170.184 239.155 170.531 238.558 170.776C237.961 171.011 237.273 171.128 236.494 171.128ZM246.663 171.128C245.735 171.128 244.909 170.941 244.183 170.568C243.458 170.184 242.887 169.656 242.471 168.984C242.066 168.312 241.863 167.549 241.863 166.696C241.863 165.832 242.066 165.069 242.471 164.408C242.887 163.736 243.458 163.213 244.183 162.84C244.909 162.456 245.735 162.264 246.663 162.264C247.57 162.264 248.359 162.456 249.031 162.84C249.703 163.213 250.199 163.752 250.519 164.456L248.583 165.496C248.359 165.091 248.077 164.792 247.735 164.6C247.405 164.408 247.042 164.312 246.647 164.312C246.221 164.312 245.837 164.408 245.495 164.6C245.154 164.792 244.882 165.064 244.679 165.416C244.487 165.768 244.391 166.195 244.391 166.696C244.391 167.197 244.487 167.624 244.679 167.976C244.882 168.328 245.154 168.6 245.495 168.792C245.837 168.984 246.221 169.08 246.647 169.08C247.042 169.08 247.405 168.989 247.735 168.808C248.077 168.616 248.359 168.312 248.583 167.896L250.519 168.952C250.199 169.645 249.703 170.184 249.031 170.568C248.359 170.941 247.57 171.128 246.663 171.128ZM256.023 171.128C255.095 171.128 254.268 170.941 253.543 170.568C252.817 170.184 252.247 169.656 251.831 168.984C251.425 168.312 251.223 167.549 251.223 166.696C251.223 165.832 251.425 165.069 251.831 164.408C252.247 163.736 252.817 163.213 253.543 162.84C254.268 162.456 255.095 162.264 256.023 162.264C256.929 162.264 257.719 162.456 258.391 162.84C259.063 163.213 259.559 163.752 259.879 164.456L257.943 165.496C257.719 165.091 257.436 164.792 257.095 164.6C256.764 164.408 256.401 164.312 256.007 164.312C255.58 164.312 255.196 164.408 254.855 164.6C254.513 164.792 254.241 165.064 254.039 165.416C253.847 165.768 253.751 166.195 253.751 166.696C253.751 167.197 253.847 167.624 254.039 167.976C254.241 168.328 254.513 168.6 254.855 168.792C255.196 168.984 255.58 169.08 256.007 169.08C256.401 169.08 256.764 168.989 257.095 168.808C257.436 168.616 257.719 168.312 257.943 167.896L259.879 168.952C259.559 169.645 259.063 170.184 258.391 170.568C257.719 170.941 256.929 171.128 256.023 171.128ZM260.715 167.496V165.496H265.243V167.496H260.715ZM268.889 169.304L266.425 168.952C266.734 168.952 266.985 168.861 267.177 168.68C267.369 168.488 267.518 168.227 267.625 167.896C267.731 167.555 267.811 167.171 267.865 166.744C267.918 166.307 267.955 165.848 267.977 165.368L268.089 162.392H275.593V169.88H273.097V164.44H270.281L270.233 165.544C270.211 166.003 270.185 166.44 270.153 166.856C270.121 167.272 270.057 167.651 269.961 167.992C269.875 168.323 269.747 168.605 269.577 168.84C269.406 169.064 269.177 169.219 268.889 169.304ZM266.137 172.856V168.952H276.825V172.856H274.505V171H268.457V172.856H266.137ZM282.427 171.128C281.51 171.128 280.694 170.936 279.979 170.552C279.275 170.168 278.715 169.645 278.299 168.984C277.894 168.312 277.691 167.549 277.691 166.696C277.691 165.832 277.894 165.069 278.299 164.408C278.715 163.736 279.275 163.213 279.979 162.84C280.694 162.456 281.51 162.264 282.427 162.264C283.334 162.264 284.145 162.456 284.859 162.84C285.574 163.213 286.134 163.731 286.539 164.392C286.945 165.053 287.147 165.821 287.147 166.696C287.147 167.549 286.945 168.312 286.539 168.984C286.134 169.645 285.574 170.168 284.859 170.552C284.145 170.936 283.334 171.128 282.427 171.128ZM282.427 169.08C282.843 169.08 283.217 168.984 283.547 168.792C283.878 168.6 284.139 168.328 284.331 167.976C284.523 167.613 284.619 167.187 284.619 166.696C284.619 166.195 284.523 165.768 284.331 165.416C284.139 165.064 283.878 164.792 283.547 164.6C283.217 164.408 282.843 164.312 282.427 164.312C282.011 164.312 281.638 164.408 281.307 164.6C280.977 164.792 280.71 165.064 280.507 165.416C280.315 165.768 280.219 166.195 280.219 166.696C280.219 167.187 280.315 167.613 280.507 167.976C280.71 168.328 280.977 168.6 281.307 168.792C281.638 168.984 282.011 169.08 282.427 169.08ZM292.96 171.128C292.032 171.128 291.205 170.941 290.48 170.568C289.755 170.184 289.184 169.656 288.768 168.984C288.363 168.312 288.16 167.549 288.16 166.696C288.16 165.832 288.363 165.069 288.768 164.408C289.184 163.736 289.755 163.213 290.48 162.84C291.205 162.456 292.032 162.264 292.96 162.264C293.867 162.264 294.656 162.456 295.328 162.84C296 163.213 296.496 163.752 296.816 164.456L294.88 165.496C294.656 165.091 294.373 164.792 294.032 164.6C293.701 164.408 293.339 164.312 292.944 164.312C292.517 164.312 292.133 164.408 291.792 164.6C291.451 164.792 291.179 165.064 290.976 165.416C290.784 165.768 290.688 166.195 290.688 166.696C290.688 167.197 290.784 167.624 290.976 167.976C291.179 168.328 291.451 168.6 291.792 168.792C292.133 168.984 292.517 169.08 292.944 169.08C293.339 169.08 293.701 168.989 294.032 168.808C294.373 168.616 294.656 168.312 294.88 167.896L296.816 168.952C296.496 169.645 296 170.184 295.328 170.568C294.656 170.941 293.867 171.128 292.96 171.128ZM300.157 171V163.864L300.717 164.44H297.245V162.392H305.549V164.44H302.077L302.637 163.864V171H300.157ZM312.032 171V169.32L311.872 168.952V165.944C311.872 165.411 311.706 164.995 311.376 164.696C311.056 164.397 310.56 164.248 309.888 164.248C309.429 164.248 308.976 164.323 308.528 164.472C308.09 164.611 307.717 164.803 307.408 165.048L306.512 163.304C306.981 162.973 307.546 162.717 308.208 162.536C308.869 162.355 309.541 162.264 310.224 162.264C311.536 162.264 312.554 162.573 313.28 163.192C314.005 163.811 314.368 164.776 314.368 166.088V171H312.032ZM309.408 171.128C308.736 171.128 308.16 171.016 307.68 170.792C307.2 170.557 306.832 170.243 306.576 169.848C306.32 169.453 306.192 169.011 306.192 168.52C306.192 168.008 306.314 167.56 306.56 167.176C306.816 166.792 307.216 166.493 307.76 166.28C308.304 166.056 309.013 165.944 309.888 165.944H312.176V167.4H310.16C309.573 167.4 309.168 167.496 308.944 167.688C308.73 167.88 308.624 168.12 308.624 168.408C308.624 168.728 308.746 168.984 308.992 169.176C309.248 169.357 309.594 169.448 310.032 169.448C310.448 169.448 310.821 169.352 311.152 169.16C311.482 168.957 311.722 168.664 311.872 168.28L312.256 169.432C312.074 169.987 311.744 170.408 311.264 170.696C310.784 170.984 310.165 171.128 309.408 171.128ZM316.536 171V162.392H320.936C322.013 162.392 322.856 162.589 323.464 162.984C324.072 163.368 324.376 163.912 324.376 164.616C324.376 165.32 324.088 165.875 323.512 166.28C322.947 166.675 322.195 166.872 321.256 166.872L321.512 166.296C322.557 166.296 323.336 166.488 323.848 166.872C324.371 167.256 324.632 167.816 324.632 168.552C324.632 169.309 324.344 169.907 323.768 170.344C323.192 170.781 322.312 171 321.128 171H316.536ZM318.824 169.304H320.92C321.379 169.304 321.72 169.229 321.944 169.08C322.179 168.92 322.296 168.68 322.296 168.36C322.296 168.029 322.189 167.789 321.976 167.64C321.763 167.48 321.427 167.4 320.968 167.4H318.824V169.304ZM318.824 165.928H320.712C321.149 165.928 321.475 165.848 321.688 165.688C321.912 165.528 322.024 165.299 322.024 165C322.024 164.691 321.912 164.461 321.688 164.312C321.475 164.163 321.149 164.088 320.712 164.088H318.824V165.928ZM332.585 171L329.705 166.92L331.737 165.72L335.529 171H332.585ZM326.489 171V162.392H328.985V171H326.489ZM328.249 167.736V165.736H331.257V167.736H328.249ZM331.977 166.984L329.641 166.728L332.665 162.392H335.321L331.977 166.984ZM336.755 171V162.392H339.235V167.512L343.427 162.392H345.715V171H343.235V165.88L339.059 171H336.755Z" fill="#333333"/>
<path d="M435.642 146V134.8H445.29V146H443.722V135.776L444.106 136.192H436.826L437.226 135.776V146H435.642ZM452.159 146.096C451.306 146.096 450.548 145.909 449.887 145.536C449.226 145.163 448.703 144.651 448.319 144C447.935 143.339 447.743 142.592 447.743 141.76C447.743 140.917 447.935 140.171 448.319 139.52C448.703 138.869 449.226 138.363 449.887 138C450.548 137.627 451.306 137.44 452.159 137.44C453.002 137.44 453.754 137.627 454.415 138C455.087 138.363 455.61 138.869 455.983 139.52C456.367 140.16 456.559 140.907 456.559 141.76C456.559 142.603 456.367 143.349 455.983 144C455.61 144.651 455.087 145.163 454.415 145.536C453.754 145.909 453.002 146.096 452.159 146.096ZM452.159 144.752C452.703 144.752 453.188 144.629 453.615 144.384C454.052 144.139 454.394 143.792 454.639 143.344C454.884 142.885 455.007 142.357 455.007 141.76C455.007 141.152 454.884 140.629 454.639 140.192C454.394 139.744 454.052 139.397 453.615 139.152C453.188 138.907 452.703 138.784 452.159 138.784C451.615 138.784 451.13 138.907 450.703 139.152C450.276 139.397 449.935 139.744 449.679 140.192C449.423 140.629 449.295 141.152 449.295 141.76C449.295 142.357 449.423 142.885 449.679 143.344C449.935 143.792 450.276 144.139 450.703 144.384C451.13 144.629 451.615 144.752 452.159 144.752ZM459.211 144.928L457.691 144.656C458.021 144.667 458.288 144.56 458.491 144.336C458.693 144.101 458.848 143.781 458.955 143.376C459.072 142.971 459.157 142.512 459.211 142C459.264 141.477 459.307 140.939 459.339 140.384L459.467 137.52H466.043V145.28H464.507V138.864H460.827L460.747 140.496C460.725 141.029 460.688 141.547 460.635 142.048C460.592 142.539 460.517 142.992 460.411 143.408C460.315 143.824 460.171 144.165 459.979 144.432C459.787 144.699 459.531 144.864 459.211 144.928ZM457.355 147.968V144.656H467.339V147.968H465.899V146H458.811V147.968H457.355ZM474.54 146V144.208L474.46 143.872V140.816C474.46 140.165 474.268 139.664 473.884 139.312C473.51 138.949 472.945 138.768 472.188 138.768C471.686 138.768 471.196 138.853 470.716 139.024C470.236 139.184 469.83 139.403 469.5 139.68L468.86 138.528C469.297 138.176 469.82 137.909 470.428 137.728C471.046 137.536 471.692 137.44 472.364 137.44C473.526 137.44 474.422 137.723 475.052 138.288C475.681 138.853 475.996 139.717 475.996 140.88V146H474.54ZM471.756 146.096C471.126 146.096 470.572 145.989 470.092 145.776C469.622 145.563 469.26 145.269 469.004 144.896C468.748 144.512 468.62 144.08 468.62 143.6C468.62 143.141 468.726 142.725 468.94 142.352C469.164 141.979 469.521 141.68 470.012 141.456C470.513 141.232 471.185 141.12 472.028 141.12H474.716V142.224H472.092C471.324 142.224 470.806 142.352 470.54 142.608C470.273 142.864 470.14 143.173 470.14 143.536C470.14 143.952 470.305 144.288 470.636 144.544C470.966 144.789 471.425 144.912 472.012 144.912C472.588 144.912 473.089 144.784 473.516 144.528C473.953 144.272 474.268 143.899 474.46 143.408L474.764 144.464C474.561 144.965 474.204 145.365 473.692 145.664C473.18 145.952 472.534 146.096 471.756 146.096ZM483.257 146.096C482.553 146.096 481.908 145.936 481.321 145.616C480.745 145.285 480.281 144.8 479.929 144.16C479.588 143.52 479.417 142.72 479.417 141.76C479.417 140.8 479.583 140 479.913 139.36C480.255 138.72 480.713 138.24 481.289 137.92C481.876 137.6 482.532 137.44 483.257 137.44C484.089 137.44 484.825 137.621 485.465 137.984C486.105 138.347 486.612 138.853 486.985 139.504C487.359 140.144 487.545 140.896 487.545 141.76C487.545 142.624 487.359 143.381 486.985 144.032C486.612 144.683 486.105 145.189 485.465 145.552C484.825 145.915 484.089 146.096 483.257 146.096ZM478.761 149.104V137.52H480.233V139.808L480.137 141.776L480.297 143.744V149.104H478.761ZM483.129 144.752C483.673 144.752 484.159 144.629 484.585 144.384C485.023 144.139 485.364 143.792 485.609 143.344C485.865 142.885 485.993 142.357 485.993 141.76C485.993 141.152 485.865 140.629 485.609 140.192C485.364 139.744 485.023 139.397 484.585 139.152C484.159 138.907 483.673 138.784 483.129 138.784C482.596 138.784 482.111 138.907 481.673 139.152C481.247 139.397 480.905 139.744 480.649 140.192C480.404 140.629 480.281 141.152 480.281 141.76C480.281 142.357 480.404 142.885 480.649 143.344C480.905 143.792 481.247 144.139 481.673 144.384C482.111 144.629 482.596 144.752 483.129 144.752ZM493.409 146.096C492.556 146.096 491.798 145.909 491.137 145.536C490.476 145.163 489.953 144.651 489.569 144C489.185 143.339 488.993 142.592 488.993 141.76C488.993 140.917 489.185 140.171 489.569 139.52C489.953 138.869 490.476 138.363 491.137 138C491.798 137.627 492.556 137.44 493.409 137.44C494.252 137.44 495.004 137.627 495.665 138C496.337 138.363 496.86 138.869 497.233 139.52C497.617 140.16 497.809 140.907 497.809 141.76C497.809 142.603 497.617 143.349 497.233 144C496.86 144.651 496.337 145.163 495.665 145.536C495.004 145.909 494.252 146.096 493.409 146.096ZM493.409 144.752C493.953 144.752 494.438 144.629 494.865 144.384C495.302 144.139 495.644 143.792 495.889 143.344C496.134 142.885 496.257 142.357 496.257 141.76C496.257 141.152 496.134 140.629 495.889 140.192C495.644 139.744 495.302 139.397 494.865 139.152C494.438 138.907 493.953 138.784 493.409 138.784C492.865 138.784 492.38 138.907 491.953 139.152C491.526 139.397 491.185 139.744 490.929 140.192C490.673 140.629 490.545 141.152 490.545 141.76C490.545 142.357 490.673 142.885 490.929 143.344C491.185 143.792 491.526 144.139 491.953 144.384C492.38 144.629 492.865 144.752 493.409 144.752ZM506.171 146L502.891 141.872L504.155 141.104L507.979 146H506.171ZM500.027 146V137.52H501.563V146H500.027ZM501.099 142.416V141.104H503.899V142.416H501.099ZM504.283 141.936L502.859 141.744L506.107 137.52H507.755L504.283 141.936ZM399.302 171V162.392H403.702C404.779 162.392 405.622 162.589 406.23 162.984C406.838 163.368 407.142 163.912 407.142 164.616C407.142 165.32 406.854 165.875 406.278 166.28C405.712 166.675 404.96 166.872 404.022 166.872L404.278 166.296C405.323 166.296 406.102 166.488 406.614 166.872C407.136 167.256 407.398 167.816 407.398 168.552C407.398 169.309 407.11 169.907 406.534 170.344C405.958 170.781 405.078 171 403.894 171H399.302ZM401.59 169.304H403.686C404.144 169.304 404.486 169.229 404.71 169.08C404.944 168.92 405.062 168.68 405.062 168.36C405.062 168.029 404.955 167.789 404.742 167.64C404.528 167.48 404.192 167.4 403.734 167.4H401.59V169.304ZM401.59 165.928H403.478C403.915 165.928 404.24 165.848 404.454 165.688C404.678 165.528 404.79 165.299 404.79 165C404.79 164.691 404.678 164.461 404.454 164.312C404.24 164.163 403.915 164.088 403.478 164.088H401.59V165.928ZM419.882 171L417.002 166.92L419.034 165.72L422.826 171H419.882ZM413.786 171V162.392H416.282V171H413.786ZM415.546 167.736V165.736H418.554V167.736H415.546ZM419.274 166.984L416.938 166.728L419.962 162.392H422.618L419.274 166.984ZM429.047 171V169.32L428.887 168.952V165.944C428.887 165.411 428.722 164.995 428.391 164.696C428.071 164.397 427.575 164.248 426.903 164.248C426.445 164.248 425.991 164.323 425.543 164.472C425.106 164.611 424.733 164.803 424.423 165.048L423.527 163.304C423.997 162.973 424.562 162.717 425.223 162.536C425.885 162.355 426.557 162.264 427.239 162.264C428.551 162.264 429.57 162.573 430.295 163.192C431.021 163.811 431.383 164.776 431.383 166.088V171H429.047ZM426.423 171.128C425.751 171.128 425.175 171.016 424.695 170.792C424.215 170.557 423.847 170.243 423.591 169.848C423.335 169.453 423.207 169.011 423.207 168.52C423.207 168.008 423.33 167.56 423.575 167.176C423.831 166.792 424.231 166.493 424.775 166.28C425.319 166.056 426.029 165.944 426.903 165.944H429.191V167.4H427.175C426.589 167.4 426.183 167.496 425.959 167.688C425.746 167.88 425.639 168.12 425.639 168.408C425.639 168.728 425.762 168.984 426.007 169.176C426.263 169.357 426.61 169.448 427.047 169.448C427.463 169.448 427.837 169.352 428.167 169.16C428.498 168.957 428.738 168.664 428.887 168.28L429.271 169.432C429.09 169.987 428.759 170.408 428.279 170.696C427.799 170.984 427.181 171.128 426.423 171.128ZM443.904 171L441.616 166.92L443.632 165.72L446.864 171H443.904ZM432.448 171L435.664 165.72L437.68 166.92L435.392 171H432.448ZM435.408 166.984L432.64 162.392H435.28L437.744 166.728L435.408 166.984ZM436.176 167.736V165.736H439.152V167.736H436.176ZM438.416 171V162.392H440.88V171H438.416ZM440.144 167.736V165.736H443.136V167.736H440.144ZM443.888 166.984L441.536 166.728L444.016 162.392H446.656L443.888 166.984ZM449.873 169.304L447.409 168.952C447.718 168.952 447.969 168.861 448.161 168.68C448.353 168.488 448.502 168.227 448.609 167.896C448.716 167.555 448.796 167.171 448.849 166.744C448.902 166.307 448.94 165.848 448.961 165.368L449.073 162.392H456.577V169.88H454.081V164.44H451.265L451.217 165.544C451.196 166.003 451.169 166.44 451.137 166.856C451.105 167.272 451.041 167.651 450.945 167.992C450.86 168.323 450.732 168.605 450.561 168.84C450.39 169.064 450.161 169.219 449.873 169.304ZM447.121 172.856V168.952H457.809V172.856H455.489V171H449.441V172.856H447.121ZM463.412 171.128C462.494 171.128 461.678 170.936 460.964 170.552C460.26 170.168 459.7 169.645 459.284 168.984C458.878 168.312 458.676 167.549 458.676 166.696C458.676 165.832 458.878 165.069 459.284 164.408C459.7 163.736 460.26 163.213 460.964 162.84C461.678 162.456 462.494 162.264 463.412 162.264C464.318 162.264 465.129 162.456 465.844 162.84C466.558 163.213 467.118 163.731 467.524 164.392C467.929 165.053 468.132 165.821 468.132 166.696C468.132 167.549 467.929 168.312 467.524 168.984C467.118 169.645 466.558 170.168 465.844 170.552C465.129 170.936 464.318 171.128 463.412 171.128ZM463.412 169.08C463.828 169.08 464.201 168.984 464.532 168.792C464.862 168.6 465.124 168.328 465.316 167.976C465.508 167.613 465.604 167.187 465.604 166.696C465.604 166.195 465.508 165.768 465.316 165.416C465.124 165.064 464.862 164.792 464.532 164.6C464.201 164.408 463.828 164.312 463.412 164.312C462.996 164.312 462.622 164.408 462.292 164.6C461.961 164.792 461.694 165.064 461.492 165.416C461.3 165.768 461.204 166.195 461.204 166.696C461.204 167.187 461.3 167.613 461.492 167.976C461.694 168.328 461.961 168.6 462.292 168.792C462.622 168.984 462.996 169.08 463.412 169.08ZM469.848 171V162.392H472.456L475.704 168.28H474.664L478.136 162.392H480.472L480.504 171H478.248V164.952L478.632 165.208L475.672 170.168H474.616L471.64 165.032L472.104 164.92V171H469.848ZM490.339 171.16C489.677 171.16 489.016 171.091 488.355 170.952C487.704 170.813 487.101 170.605 486.547 170.328L487.219 168.584C487.656 168.797 488.131 168.963 488.643 169.08C489.165 169.187 489.693 169.24 490.227 169.24C490.611 169.24 490.941 169.203 491.219 169.128C491.507 169.043 491.725 168.925 491.875 168.776C492.024 168.627 492.099 168.445 492.099 168.232C492.099 167.955 491.981 167.747 491.747 167.608C491.512 167.459 491.171 167.384 490.723 167.384H488.659V165.832H490.515C490.803 165.832 491.048 165.8 491.251 165.736C491.453 165.672 491.603 165.581 491.699 165.464C491.805 165.336 491.859 165.187 491.859 165.016C491.859 164.835 491.795 164.68 491.667 164.552C491.539 164.424 491.352 164.328 491.107 164.264C490.861 164.189 490.552 164.152 490.179 164.152C489.752 164.152 489.309 164.205 488.851 164.312C488.392 164.408 487.923 164.552 487.443 164.744L486.835 163.016C487.4 162.781 487.96 162.595 488.515 162.456C489.069 162.317 489.619 162.243 490.163 162.232C490.963 162.211 491.683 162.296 492.323 162.488C492.963 162.68 493.464 162.957 493.827 163.32C494.2 163.683 494.387 164.125 494.387 164.648C494.387 165.064 494.259 165.437 494.003 165.768C493.757 166.099 493.416 166.36 492.979 166.552C492.541 166.733 492.051 166.824 491.507 166.824L491.571 166.328C492.52 166.328 493.267 166.52 493.811 166.904C494.355 167.277 494.627 167.789 494.627 168.44C494.627 168.995 494.435 169.48 494.051 169.896C493.677 170.301 493.165 170.616 492.515 170.84C491.875 171.053 491.149 171.16 490.339 171.16ZM501.563 171V169.32L501.403 168.952V165.944C501.403 165.411 501.238 164.995 500.907 164.696C500.587 164.397 500.091 164.248 499.419 164.248C498.96 164.248 498.507 164.323 498.059 164.472C497.622 164.611 497.248 164.803 496.939 165.048L496.043 163.304C496.512 162.973 497.078 162.717 497.739 162.536C498.4 162.355 499.072 162.264 499.755 162.264C501.067 162.264 502.086 162.573 502.811 163.192C503.536 163.811 503.899 164.776 503.899 166.088V171H501.563ZM498.939 171.128C498.267 171.128 497.691 171.016 497.211 170.792C496.731 170.557 496.363 170.243 496.107 169.848C495.851 169.453 495.723 169.011 495.723 168.52C495.723 168.008 495.846 167.56 496.091 167.176C496.347 166.792 496.747 166.493 497.291 166.28C497.835 166.056 498.544 165.944 499.419 165.944H501.707V167.4H499.691C499.104 167.4 498.699 167.496 498.475 167.688C498.262 167.88 498.155 168.12 498.155 168.408C498.155 168.728 498.278 168.984 498.523 169.176C498.779 169.357 499.126 169.448 499.563 169.448C499.979 169.448 500.352 169.352 500.683 169.16C501.014 168.957 501.254 168.664 501.403 168.28L501.787 169.432C501.606 169.987 501.275 170.408 500.795 170.696C500.315 170.984 499.696 171.128 498.939 171.128ZM512.163 171L509.283 166.92L511.315 165.72L515.107 171H512.163ZM506.067 171V162.392H508.563V171H506.067ZM507.827 167.736V165.736H510.835V167.736H507.827ZM511.555 166.984L509.219 166.728L512.243 162.392H514.899L511.555 166.984ZM521.329 171V169.32L521.169 168.952V165.944C521.169 165.411 521.003 164.995 520.673 164.696C520.353 164.397 519.857 164.248 519.185 164.248C518.726 164.248 518.273 164.323 517.825 164.472C517.387 164.611 517.014 164.803 516.705 165.048L515.809 163.304C516.278 162.973 516.843 162.717 517.505 162.536C518.166 162.355 518.838 162.264 519.521 162.264C520.833 162.264 521.851 162.573 522.577 163.192C523.302 163.811 523.665 164.776 523.665 166.088V171H521.329ZM518.705 171.128C518.033 171.128 517.457 171.016 516.977 170.792C516.497 170.557 516.129 170.243 515.873 169.848C515.617 169.453 515.489 169.011 515.489 168.52C515.489 168.008 515.611 167.56 515.857 167.176C516.113 166.792 516.513 166.493 517.057 166.28C517.601 166.056 518.31 165.944 519.185 165.944H521.473V167.4H519.457C518.87 167.4 518.465 167.496 518.241 167.688C518.027 167.88 517.921 168.12 517.921 168.408C517.921 168.728 518.043 168.984 518.289 169.176C518.545 169.357 518.891 169.448 519.329 169.448C519.745 169.448 520.118 169.352 520.449 169.16C520.779 168.957 521.019 168.664 521.169 168.28L521.553 169.432C521.371 169.987 521.041 170.408 520.561 170.696C520.081 170.984 519.462 171.128 518.705 171.128ZM528.745 171.16C528.083 171.16 527.422 171.091 526.761 170.952C526.11 170.813 525.507 170.605 524.953 170.328L525.625 168.584C526.062 168.797 526.537 168.963 527.049 169.08C527.571 169.187 528.099 169.24 528.633 169.24C529.017 169.24 529.347 169.203 529.625 169.128C529.913 169.043 530.131 168.925 530.281 168.776C530.43 168.627 530.505 168.445 530.505 168.232C530.505 167.955 530.387 167.747 530.153 167.608C529.918 167.459 529.577 167.384 529.129 167.384H527.065V165.832H528.921C529.209 165.832 529.454 165.8 529.657 165.736C529.859 165.672 530.009 165.581 530.105 165.464C530.211 165.336 530.265 165.187 530.265 165.016C530.265 164.835 530.201 164.68 530.073 164.552C529.945 164.424 529.758 164.328 529.513 164.264C529.267 164.189 528.958 164.152 528.585 164.152C528.158 164.152 527.715 164.205 527.257 164.312C526.798 164.408 526.329 164.552 525.849 164.744L525.241 163.016C525.806 162.781 526.366 162.595 526.921 162.456C527.475 162.317 528.025 162.243 528.569 162.232C529.369 162.211 530.089 162.296 530.729 162.488C531.369 162.68 531.87 162.957 532.233 163.32C532.606 163.683 532.793 164.125 532.793 164.648C532.793 165.064 532.665 165.437 532.409 165.768C532.163 166.099 531.822 166.36 531.385 166.552C530.947 166.733 530.457 166.824 529.913 166.824L529.977 166.328C530.926 166.328 531.673 166.52 532.217 166.904C532.761 167.277 533.033 167.789 533.033 168.44C533.033 168.995 532.841 169.48 532.457 169.896C532.083 170.301 531.571 170.616 530.921 170.84C530.281 171.053 529.555 171.16 528.745 171.16ZM539.025 171.128C538.044 171.128 537.18 170.936 536.433 170.552C535.697 170.168 535.127 169.645 534.721 168.984C534.316 168.312 534.113 167.549 534.113 166.696C534.113 165.832 534.311 165.069 534.705 164.408C535.111 163.736 535.66 163.213 536.353 162.84C537.047 162.456 537.831 162.264 538.705 162.264C539.548 162.264 540.305 162.445 540.977 162.808C541.66 163.16 542.199 163.672 542.593 164.344C542.988 165.005 543.185 165.8 543.185 166.728C543.185 166.824 543.18 166.936 543.169 167.064C543.159 167.181 543.148 167.293 543.137 167.4H536.145V165.944H541.825L540.865 166.376C540.865 165.928 540.775 165.539 540.593 165.208C540.412 164.877 540.161 164.621 539.841 164.44C539.521 164.248 539.148 164.152 538.721 164.152C538.295 164.152 537.916 164.248 537.585 164.44C537.265 164.621 537.015 164.883 536.833 165.224C536.652 165.555 536.561 165.949 536.561 166.408V166.792C536.561 167.261 536.663 167.677 536.865 168.04C537.079 168.392 537.372 168.664 537.745 168.856C538.129 169.037 538.577 169.128 539.089 169.128C539.548 169.128 539.948 169.059 540.289 168.92C540.641 168.781 540.961 168.573 541.249 168.296L542.577 169.736C542.183 170.184 541.687 170.531 541.089 170.776C540.492 171.011 539.804 171.128 539.025 171.128Z" fill="#333333"/>
<path d="M96.1042 50.2907C72.4968 4.47488 43.2528 18.9552 23.4421 38.5351C15.0325 46.8467 9.86077 58.503 12.012 70.1296C17.1342 97.8141 42.558 108.091 60.7932 108.091C109.583 103.056 110.667 75.3634 96.1042 50.2907Z" fill="#83BF13"/>
<path d="M90.0717 49.2606C64.0264 1.6658 35.8949 18.5336 16.6228 39.898C8.73207 48.6454 3.95335 60.3252 6.20936 71.8877C11.9572 101.347 39.0244 111.578 58.171 111.06C108.746 104.424 105.92 75.0524 90.0717 49.2606Z" stroke="black" stroke-width="0.5" stroke-dasharray="2 2"/>
<path d="M299.351 48.8455C269.947 -8.86696 227.268 18.0194 219.513 48.8453C211.759 99.2717 242.224 110.576 264.278 110.576C307.633 105.277 314.115 74.5508 299.351 48.8455Z" fill="#83BF13"/>
<path d="M290.734 94.8562C326.512 53.023 299.635 30.3587 272.245 19.0904C261.351 14.6083 248.729 14.3044 238.697 20.4803C212.758 36.4492 212.776 65.7787 220.144 83.723C244.543 129.137 272.042 119.077 290.734 94.8562Z" stroke="black" stroke-width="0.5" stroke-dasharray="2.5 2.5"/>
<path d="M432.842 47.9473C458.663 -2.49887 491.376 21.2883 510.376 43.3255C513.907 47.4205 516.062 52.5946 515.995 57.9972C515.567 92.4304 487.155 104.864 467.383 104.864C419.658 99.9064 418.597 72.6371 432.842 47.9473Z" fill="#83BF13"/>
<path d="M432.842 47.9473C458.663 -2.49887 491.376 21.2883 510.376 43.3255C513.907 47.4205 516.062 52.5946 515.995 57.9972C515.567 92.4304 487.155 104.864 467.383 104.864C419.658 99.9064 418.597 72.6371 432.842 47.9473Z" fill="#83BF13"/>
<path d="M506.191 34.1507C461.015 -8.06217 439.735 33.4318 429.154 63.6292C427.37 68.7184 426.164 74.0942 426.795 79.4499C430.51 110.992 468.308 114.522 488.364 107.3C522.825 87.3311 529.732 54.0281 506.191 34.1507Z" stroke="black" stroke-width="0.5" stroke-dasharray="2.5 2.5"/>
<path fill-rule="evenodd" clip-rule="evenodd" d="M38.5723 59.5824C38.9442 59.326 39.4144 59.2821 39.8239 59.4656L45.125 61.8402C45.6123 62.0585 45.9282 62.5594 45.9282 63.1135V69.0502C45.9282 69.5159 45.7044 69.9504 45.3325 70.2067C44.9606 70.4631 44.4903 70.507 44.0808 70.3234L38.7798 67.9489C38.2925 67.7305 37.9766 67.2296 37.9766 66.6755V60.7388C37.9766 60.2733 38.2004 59.8387 38.5723 59.5824ZM40.6271 62.8395V65.7621L43.2776 66.9495V64.0269L40.6271 62.8395Z" fill="white"/>
<path d="M71.6013 72.0004C72.2809 71.7162 72.6114 70.9098 72.3396 70.1994C72.0678 69.4889 71.2965 69.1434 70.6169 69.4276L65.3159 71.6443C64.6363 71.9285 64.3058 72.7348 64.5775 73.4452C64.8495 74.1557 65.6207 74.5012 66.3002 74.2171L71.6013 72.0004Z" fill="white"/>
<path d="M72.3397 66.0432C72.6115 66.7537 72.2809 67.56 71.6013 67.8441L66.3002 70.0608C65.6206 70.345 64.8495 69.9994 64.5776 69.289C64.3057 68.5785 64.6363 67.7721 65.3159 67.488L70.617 65.2713C71.2965 64.9872 72.0678 65.3327 72.3397 66.0432Z" fill="white"/>
<path fill-rule="evenodd" clip-rule="evenodd" d="M54.7121 44.2163C55.028 44.0842 55.3806 44.0842 55.6966 44.2163L75.5756 52.5277C76.0786 52.738 76.4086 53.2474 76.4086 53.8138V74.5924C76.4086 75.1588 76.0786 75.6682 75.5755 75.8786L55.6965 84.19C55.3806 84.322 55.028 84.322 54.712 84.19L34.833 75.8786C34.3299 75.6682 34 75.1589 34 74.5924V53.8138C34 53.2474 34.3299 52.738 34.8331 52.5276L54.7121 44.2163ZM36.6505 55.8599L53.879 63.0631V80.8579L36.6505 73.6547V55.8599ZM56.5296 80.8578L73.7581 73.6546V55.8599L56.5296 63.0631V80.8578ZM65.4751 56.3391L71.5149 53.8138L55.2043 46.9944L49.1646 49.5196L65.4751 56.3391ZM45.5961 51.0116L38.8936 53.8138L55.2043 60.6333L61.9067 57.831L45.5961 51.0116Z" fill="white"/>
<path fill-rule="evenodd" clip-rule="evenodd" d="M251.267 69.3184C248.029 69.3184 245.4 71.8219 245.4 74.9066C245.4 77.9913 248.029 80.4948 251.267 80.4948C254.505 80.4948 257.134 77.9913 257.134 74.9066C257.134 71.8219 254.505 69.3184 251.267 69.3184ZM251.267 72.1125C252.886 72.1125 254.2 73.3642 254.2 74.9066C254.2 76.4489 252.886 77.7007 251.267 77.7007C249.648 77.7007 248.334 76.4489 248.334 74.9066C248.334 73.3642 249.648 72.1125 251.267 72.1125Z" fill="white"/>
<path fill-rule="evenodd" clip-rule="evenodd" d="M274.732 69.3184C271.493 69.3184 268.865 71.8219 268.865 74.9066C268.865 77.9913 271.493 80.4948 274.732 80.4948C277.97 80.4948 280.599 77.9913 280.599 74.9066C280.599 71.8219 277.97 69.3184 274.732 69.3184ZM274.732 72.1125C276.351 72.1125 277.665 73.3642 277.665 74.9066C277.665 76.4489 276.351 77.7007 274.732 77.7007C273.113 77.7007 271.799 76.4489 271.799 74.9066C271.799 73.3642 273.113 72.1125 274.732 72.1125Z" fill="white"/>
<path fill-rule="evenodd" clip-rule="evenodd" d="M267.4 73.5108V51.158C267.4 48.8444 265.429 46.9668 263 46.9668H242.467C241.657 46.9668 241 47.5927 241 48.3639C241 49.135 241.657 49.7609 242.467 49.7609H263C263.81 49.7609 264.467 50.3868 264.467 51.158V73.5108C264.467 74.282 265.124 74.9079 265.933 74.9079C266.743 74.9079 267.4 74.282 267.4 73.5108Z" fill="white"/>
<path fill-rule="evenodd" clip-rule="evenodd" d="M242.467 74.9069H246.867C247.676 74.9069 248.333 74.2812 248.333 73.5101C248.333 72.7391 247.676 72.1133 246.867 72.1133H242.467C241.657 72.1133 241 72.7391 241 73.5101C241 74.2812 241.657 74.9069 242.467 74.9069Z" fill="white"/>
<path fill-rule="evenodd" clip-rule="evenodd" d="M255.668 74.9069H270.334C271.144 74.9069 271.801 74.2812 271.801 73.5101C271.801 72.7391 271.144 72.1133 270.334 72.1133H255.668C254.858 72.1133 254.201 72.7391 254.201 73.5101C254.201 74.2812 254.858 74.9069 255.668 74.9069Z" fill="white"/>
<path fill-rule="evenodd" clip-rule="evenodd" d="M279.133 74.907H280.6L280.713 74.9056C283.089 74.8483 285 72.993 285 70.7158V62.5389C285 61.1418 284.418 59.8034 283.381 58.8157L279.893 55.4935C278.856 54.5058 277.451 53.9512 275.985 53.9512H265.933C265.124 53.9512 264.467 54.5771 264.467 55.3482C264.467 56.1194 265.124 56.7453 265.933 56.7453H275.985C276.672 56.7453 277.332 57.0051 277.819 57.469L281.307 60.7911C281.794 61.255 282.067 61.8836 282.067 62.5389V70.7158C282.067 71.487 281.41 72.1129 280.6 72.1129H280.584H279.133C278.324 72.1129 277.667 72.7388 277.667 73.5099C277.667 74.2811 278.324 74.907 279.133 74.907Z" fill="white"/>
<path fill-rule="evenodd" clip-rule="evenodd" d="M271.801 55.3482V62.3042C271.801 63.8633 273.128 65.1276 274.765 65.1276H283.534C284.344 65.1276 285.001 64.5017 285.001 63.7306C285.001 62.9594 284.344 62.3335 283.534 62.3335H274.765C274.747 62.3335 274.734 62.3209 274.734 62.3042V55.3482C274.734 54.5771 274.077 53.9512 273.267 53.9512C272.458 53.9512 271.801 54.5771 271.801 55.3482Z" fill="white"/>
<path fill-rule="evenodd" clip-rule="evenodd" d="M243.64 55.3484H254.2C255.01 55.3484 255.667 54.7226 255.667 53.9515C255.667 53.1805 255.01 52.5547 254.2 52.5547H243.64C242.831 52.5547 242.174 53.1805 242.174 53.9515C242.174 54.7226 242.831 55.3484 243.64 55.3484Z" fill="white"/>
<path fill-rule="evenodd" clip-rule="evenodd" d="M248.334 60.9362H260.067C260.877 60.9362 261.534 60.3105 261.534 59.5394C261.534 58.7684 260.877 58.1426 260.067 58.1426H248.334C247.524 58.1426 246.867 58.7684 246.867 59.5394C246.867 60.3105 247.524 60.9362 248.334 60.9362Z" fill="white"/>
<path fill-rule="evenodd" clip-rule="evenodd" d="M242.467 66.5241H254.2C255.01 66.5241 255.667 65.8984 255.667 65.1273C255.667 64.3563 255.01 63.7305 254.2 63.7305H242.467C241.657 63.7305 241 64.3563 241 65.1273C241 65.8984 241.657 66.5241 242.467 66.5241Z" fill="white"/>
<path d="M465.185 44.5049C465.524 44.4907 468.384 44.4368 470.502 46.4414C471.01 46.9226 471.424 47.4806 471.75 48.1045C472.076 47.4806 472.49 46.9226 472.998 46.4414C475.207 44.35 478.226 44.498 478.363 44.5049L478.362 44.5059C480.771 44.5185 482.741 46.4989 482.741 48.9297C482.741 49.8969 482.428 50.7905 481.9 51.5176H488.081C488.589 51.5176 489 51.9293 489 52.4365V59.5508C489 60.058 488.589 60.4697 488.081 60.4697H487.359V78.0811C487.359 78.5882 486.949 78.9998 486.441 79H457.059C456.551 78.9998 456.141 78.5882 456.141 78.0811V60.4697H455.419C454.911 60.4697 454.5 60.058 454.5 59.5508V52.4365C454.5 51.9293 454.911 51.5176 455.419 51.5176H461.6C461.072 50.7905 460.759 49.8969 460.759 48.9297C460.759 46.489 462.744 44.5041 465.185 44.5039V44.5049ZM476.603 77.1621H485.522V60.4697H476.603V77.1621ZM468.734 77.1621H474.766V60.4697H468.734V77.1621ZM457.978 77.1621H466.897V60.4697H457.978V77.1621ZM476.603 58.6328H487.162V53.3555H476.603V58.6328ZM468.734 58.6328H474.766V53.3555H468.734V58.6328ZM456.338 58.6328H466.897V53.3555H456.338V58.6328ZM465.223 46.3408H465.207C463.755 46.3414 462.597 47.5053 462.597 48.9297C462.597 50.3561 463.758 51.5174 465.185 51.5176H470.798C470.677 49.8725 470.142 48.6343 469.244 47.7812H469.243C468.443 47.0214 467.453 46.6564 466.637 46.4844C465.848 46.318 465.257 46.3393 465.237 46.3398L465.223 46.3408ZM478.291 46.3408C478.291 46.3408 477.681 46.3131 476.866 46.4844C476.047 46.6566 475.056 47.0223 474.257 47.7812H474.256C473.358 48.6343 472.823 49.8725 472.702 51.5176H478.315C479.742 51.5174 480.903 50.3561 480.903 48.9297C480.903 47.5031 479.742 46.342 478.315 46.3418H478.303L478.291 46.3408Z" fill="white" stroke="white"/>
</svg>
