<svg width="37" height="37" viewBox="0 0 37 37" fill="none" xmlns="http://www.w3.org/2000/svg">
<circle cx="18.5" cy="18.5" r="18.5" transform="matrix(1 0 0 -1 0 37)" fill="white"/>
<g clip-path="url(#clip0_2647_113)">
<path d="M26.6376 21.3003C25.6217 20.4838 24.6898 20.0869 23.7886 20.0869C22.4848 20.0869 21.5462 20.9162 20.6963 21.7658C20.5986 21.8636 20.4803 21.9092 20.324 21.9092C19.6078 21.9093 18.348 21.0124 16.5794 19.2437C14.4988 17.1629 13.7122 15.8395 14.2412 15.3104C15.6751 13.8769 16.1227 12.4399 13.9273 9.7095C13.1413 8.73129 12.3724 8.25586 11.5765 8.25586C10.5031 8.25586 9.68713 9.11386 8.96724 9.87092C8.84278 10.0018 8.72521 10.1254 8.60994 10.2407C7.79628 11.0543 7.7967 12.8289 8.61112 14.988C9.50469 17.357 11.269 19.9341 13.5791 22.2445C15.3656 24.0309 17.3094 25.4746 19.2006 26.4439C20.8516 27.2902 22.4531 27.7436 23.71 27.7436C23.7102 27.7436 23.7103 27.7436 23.7105 27.7436C24.4971 27.7436 25.136 27.572 25.558 27.2231C26.4152 26.5144 28.0106 25.2017 28 23.6425C27.9941 22.8062 27.5359 22.0225 26.6376 21.3003Z" fill="#32777B"/>
</g>
<defs>
<clipPath id="clip0_2647_113">
<rect width="20" height="20" fill="white" transform="translate(8 8)"/>
</clipPath>
</defs>
</svg>
