<svg width="121" height="34" viewBox="0 0 121 34" fill="none" xmlns="http://www.w3.org/2000/svg">
<path d="M7.32 20.384C5.256 20.384 3.664 19.888 2.544 18.896C1.424 17.904 0.864 16.488 0.864 14.648V9.2H3.216V14.384C3.216 15.632 3.592 16.592 4.344 17.264C5.112 17.936 6.184 18.272 7.56 18.272C8.392 18.272 9.232 18.168 10.08 17.96C10.944 17.752 11.784 17.448 12.6 17.048L12.624 19.184C11.696 19.584 10.784 19.888 9.888 20.096C8.992 20.288 8.136 20.384 7.32 20.384ZM12.24 26V9.2H14.592V26H12.24ZM19.4586 26V13.28H21.7626V22.544L29.5626 13.28H31.6506V26H29.3466V16.736L21.5706 26H19.4586ZM38.6426 26V14.696L39.2186 15.296H33.9866V13.28H45.6026V15.296H40.3946L40.9466 14.696V26H38.6426ZM55.7586 26V23.312L55.6386 22.808V18.224C55.6386 17.248 55.3506 16.496 54.7746 15.968C54.2146 15.424 53.3666 15.152 52.2306 15.152C51.4786 15.152 50.7426 15.28 50.0226 15.536C49.3026 15.776 48.6946 16.104 48.1986 16.52L47.2386 14.792C47.8946 14.264 48.6786 13.864 49.5906 13.592C50.5186 13.304 51.4866 13.16 52.4946 13.16C54.2386 13.16 55.5826 13.584 56.5266 14.432C57.4706 15.28 57.9426 16.576 57.9426 18.32V26H55.7586ZM51.5826 26.144C50.6386 26.144 49.8066 25.984 49.0866 25.664C48.3826 25.344 47.8386 24.904 47.4546 24.344C47.0706 23.768 46.8786 23.12 46.8786 22.4C46.8786 21.712 47.0386 21.088 47.3586 20.528C47.6946 19.968 48.2306 19.52 48.9666 19.184C49.7186 18.848 50.7266 18.68 51.9906 18.68H56.0226V20.336H52.0866C50.9346 20.336 50.1586 20.528 49.7586 20.912C49.3586 21.296 49.1586 21.76 49.1586 22.304C49.1586 22.928 49.4066 23.432 49.9026 23.816C50.3986 24.184 51.0866 24.368 51.9666 24.368C52.8306 24.368 53.5826 24.176 54.2226 23.792C54.8786 23.408 55.3506 22.848 55.6386 22.112L56.0946 23.696C55.7906 24.448 55.2546 25.048 54.4866 25.496C53.7186 25.928 52.7506 26.144 51.5826 26.144ZM64.6114 26V14.696L65.1874 15.296H59.9554V13.28H71.5714V15.296H66.3634L66.9154 14.696V26H64.6114ZM79.4473 26.024L73.9273 26V13.28H76.2313V17.576L79.8073 17.6C81.4233 17.616 82.6553 17.984 83.5033 18.704C84.3513 19.424 84.7753 20.44 84.7753 21.752C84.7753 23.128 84.3113 24.192 83.3833 24.944C82.4553 25.68 81.1433 26.04 79.4473 26.024ZM79.2553 24.272C80.2953 24.288 81.0793 24.08 81.6073 23.648C82.1513 23.216 82.4233 22.576 82.4233 21.728C82.4233 20.896 82.1593 20.288 81.6313 19.904C81.1033 19.52 80.3113 19.32 79.2553 19.304L76.2313 19.256V24.248L79.2553 24.272Z" fill="#333333" fill-opacity="0.6"/>
<path d="M100 18C99.4477 18 99 18.4477 99 19C99 19.5523 99.4477 20 100 20V19V18ZM120.707 19.7071C121.098 19.3166 121.098 18.6834 120.707 18.2929L114.343 11.9289C113.953 11.5384 113.319 11.5384 112.929 11.9289C112.538 12.3195 112.538 12.9526 112.929 13.3431L118.586 19L112.929 24.6569C112.538 25.0474 112.538 25.6805 112.929 26.0711C113.319 26.4616 113.953 26.4616 114.343 26.0711L120.707 19.7071ZM100 19V20H120V19V18H100V19Z" fill="black" fill-opacity="0.6"/>
</svg>
